<svg width="1440" height="981" viewBox="0 0 1440 981" fill="none" xmlns="http://www.w3.org/2000/svg">
<rect x="607.5" y="566" width="35" height="35" stroke="#C2C8D0"/>
<path d="M575 550.5L575 543L593.5 524.5L598.5 524.5" stroke="#C2C8D0"/>
<circle cx="600" cy="524.5" r="1.5" transform="rotate(-90 600 524.5)" stroke="#C2C8D0"/>
<circle cx="575" cy="552.5" r="1.5" transform="rotate(-90 575 552.5)" stroke="#C2C8D0"/>
<rect x="103" y="138.5" width="35" height="35" stroke="#C2C8D0"/>
<circle cx="120.5" cy="156" r="9.5" stroke="#C2C8D0"/>
<path d="M138 139V843" stroke="#C2C8D0"/>
<g filter="url(#filter0_f_2041_1725)">
<g clip-path="url(#paint0_diamond_2041_1725_clip_path)" data-figma-skip-parse="true"><g transform="matrix(0 0.0345 -0.0115 0 690 139)"><rect x="0" y="0" width="1173.91" height="782.609" fill="url(#paint0_diamond_2041_1725)" opacity="1" shape-rendering="crispEdges"/><rect x="0" y="0" width="1173.91" height="782.609" transform="scale(1 -1)" fill="url(#paint0_diamond_2041_1725)" opacity="1" shape-rendering="crispEdges"/><rect x="0" y="0" width="1173.91" height="782.609" transform="scale(-1 1)" fill="url(#paint0_diamond_2041_1725)" opacity="1" shape-rendering="crispEdges"/><rect x="0" y="0" width="1173.91" height="782.609" transform="scale(-1)" fill="url(#paint0_diamond_2041_1725)" opacity="1" shape-rendering="crispEdges"/></g></g><path d="M685.5 138H693.5L698 178.5H682L685.5 138Z" data-figma-gradient-fill="{&#34;type&#34;:&#34;GRADIENT_DIAMOND&#34;,&#34;stops&#34;:[{&#34;color&#34;:{&#34;r&#34;:0.38823530077934265,&#34;g&#34;:0.83921569585800171,&#34;b&#34;:0.31764706969261169,&#34;a&#34;:0.60000002384185791},&#34;position&#34;:0.50499999523162842},{&#34;color&#34;:{&#34;r&#34;:0.26111733913421631,&#34;g&#34;:0.80433976650238037,&#34;b&#34;:0.60121792554855347,&#34;a&#34;:0.35065323114395142},&#34;position&#34;:0.74000000953674316},{&#34;color&#34;:{&#34;r&#34;:0.082352943718433380,&#34;g&#34;:0.75529414415359497,&#34;b&#34;:1.0,&#34;a&#34;:0.0},&#34;position&#34;:1.0}],&#34;stopsVar&#34;:[{&#34;color&#34;:{&#34;r&#34;:0.38823530077934265,&#34;g&#34;:0.83921569585800171,&#34;b&#34;:0.31764706969261169,&#34;a&#34;:0.60000002384185791},&#34;position&#34;:0.50499999523162842},{&#34;color&#34;:{&#34;r&#34;:0.26111733913421631,&#34;g&#34;:0.80433976650238037,&#34;b&#34;:0.60121792554855347,&#34;a&#34;:0.35065323114395142},&#34;position&#34;:0.74000000953674316},{&#34;color&#34;:{&#34;r&#34;:0.082352943718433380,&#34;g&#34;:0.75529414415359497,&#34;b&#34;:1.0,&#34;a&#34;:0.0},&#34;position&#34;:1.0}],&#34;transform&#34;:{&#34;m00&#34;:-1.7989284107483572e-12,&#34;m01&#34;:-22.999980926513672,&#34;m02&#34;:701.50,&#34;m10&#34;:68.999954223632812,&#34;m11&#34;:7.2226380827761574e-15,&#34;m12&#34;:104.50003814697266},&#34;opacity&#34;:1.0,&#34;blendMode&#34;:&#34;NORMAL&#34;,&#34;visible&#34;:true}"/>
</g>
<path d="M89 750V758.5M89 758.5L69.5 778V806L60.5 815M89 758.5L108.5 778V806L117.5 815" stroke="#C2C8D0"/>
<rect x="642.5" y="138.5" width="659" height="704" stroke="#C2C8D0"/>
<path d="M696 70V115.5L687 124.5V138" stroke="url(#paint1_linear_2041_1725)"/>
<path d="M694 70V115L685 124V138" stroke="url(#paint2_linear_2041_1725)"/>
<path d="M698 70V116L689 125L689 138" stroke="url(#paint3_linear_2041_1725)"/>
<path d="M700 70V116.5L691 125.5V138" stroke="url(#paint4_linear_2041_1725)"/>
<path d="M702 70V117L693 126V138" stroke="url(#paint5_linear_2041_1725)"/>
<path d="M704 70V117.5L695 126.5V138" stroke="url(#paint6_linear_2041_1725)"/>
<path d="M696 115.5L687 124.5V138" stroke="url(#paint7_linear_2041_1725)"/>
<path d="M694 115L685 124V138" stroke="url(#paint8_linear_2041_1725)"/>
<path d="M698 116L689 125L689 138" stroke="url(#paint9_linear_2041_1725)"/>
<path d="M700 116.5L691 125.5V138" stroke="url(#paint10_linear_2041_1725)"/>
<path d="M702 117L693 126V138" stroke="url(#paint11_linear_2041_1725)"/>
<path d="M704 117.5L695 126.5V138" stroke="url(#paint12_linear_2041_1725)"/>
<g filter="url(#filter1_f_2041_1725)">
<path d="M696 115.5L687 124.5V138" stroke="url(#paint13_linear_2041_1725)"/>
<path d="M694 115L685 124V138" stroke="url(#paint14_linear_2041_1725)"/>
<path d="M698 116L689 125L689 138" stroke="url(#paint15_linear_2041_1725)"/>
<path d="M700 116.5L691 125.5V138" stroke="url(#paint16_linear_2041_1725)"/>
<path d="M702 117L693 126V138" stroke="url(#paint17_linear_2041_1725)"/>
<path d="M704 117.5L695 126.5V138" stroke="url(#paint18_linear_2041_1725)"/>
</g>
<path d="M642.5 138.5L138 138.5" stroke="#C2C8D0"/>
<path d="M499 139V146L509.5 156.5H574L608 190.5H642.5" stroke="#C2C8D0"/>
<path d="M138 138.5L0 138.5" stroke="url(#paint19_linear_2041_1725)"/>
<path d="M1440 138.5L1302 138.5" stroke="url(#paint20_linear_2041_1725)"/>
<path d="M1301.5 843V981" stroke="url(#paint21_linear_2041_1725)"/>
<path d="M1440 842.5L1302 842.5" stroke="url(#paint22_linear_2041_1725)"/>
<path d="M0 842.5H138" stroke="url(#paint23_linear_2041_1725)"/>
<path d="M642.5 843V981" stroke="url(#paint24_linear_2041_1725)"/>
<path d="M138 843V981" stroke="url(#paint25_linear_2041_1725)"/>
<path d="M138 138V0" stroke="url(#paint26_linear_2041_1725)"/>
<path d="M642.5 138V0" stroke="url(#paint27_linear_2041_1725)"/>
<path d="M1301.5 138V0" stroke="url(#paint28_linear_2041_1725)"/>
<path d="M138 842.5L642.5 842.5" stroke="#C2C8D0"/>
<path d="M1351 231V222.5M1351 222.5L1331.5 203V175L1322.5 166M1351 222.5L1370.5 203V175L1379.5 166" stroke="#C2C8D0"/>
<rect x="1310.5" y="147" width="81" height="19" fill="#E8EAED" stroke="#C2C8D0"/>
<rect x="1310.5" y="175" width="81" height="19" fill="#E8EAED" stroke="#C2C8D0"/>
<rect x="1310.5" y="203" width="81" height="19" fill="#E8EAED" stroke="#C2C8D0"/>
<rect x="1310.5" y="231" width="81" height="19" fill="#E8EAED" stroke="#C2C8D0"/>
<path d="M643 834.5H632L620.5 823V812L599.5 791H587.5L573.5 777V762.5L551.5 740.5H533.5" stroke="#C2C8D0"/>
<path d="M627.5 809V809.5H627.293L627.146 809.354L627.5 809ZM603.5 785V784.5H603.707L603.854 784.646L603.5 785ZM590 785V785.5H589.793L589.646 785.354L590 785ZM581.146 776.854L580.793 776.5L581.5 775.793L581.854 776.146L581.146 776.854ZM643 809.5H627.5V808.5H643V809.5ZM627.146 809.354L603.146 785.354L603.854 784.646L627.854 808.646L627.146 809.354ZM603.5 785.5H590V784.5H603.5V785.5ZM589.646 785.354L581.146 776.854L581.854 776.146L590.354 784.646L589.646 785.354Z" fill="#C2C8D0"/>
<path d="M642 804H630.5L606.5 780H592.5" stroke="#C2C8D0"/>
<circle cx="1.5" cy="1.5" r="1.5" transform="matrix(1 0 0 -1 591 781.5)" fill="#C2C8D0"/>
<path d="M642 799H631.5L608 775.5H597.5" stroke="#C2C8D0"/>
<circle cx="1.5" cy="1.5" r="1.5" transform="matrix(1 0 0 -1 595 777)" fill="#C2C8D0"/>
<path d="M642 794H633.5L610 770.5H601.5L598.5 767.5" stroke="#C2C8D0"/>
<circle cx="1.5" cy="1.5" r="1.5" transform="matrix(1 0 0 -1 596.5 768.5)" fill="#C2C8D0"/>
<path d="M643 789H635L605.5 759.5H592.5L589.5 762.5" stroke="#C2C8D0"/>
<circle cx="1.5" cy="1.5" r="1.5" transform="matrix(1 0 0 -1 588 764)" fill="#C2C8D0"/>
<path d="M643 784H636L608 756H591L583.5 763.5" stroke="#C2C8D0"/>
<path d="M642.5 779H637.5L610.5 752H591L586 747" stroke="#C2C8D0"/>
<circle cx="1.5" cy="1.5" r="1.5" transform="matrix(1 0 0 -1 579.5 777.5)" fill="#C2C8D0"/>
<circle cx="1.5" cy="1.5" r="1.5" transform="matrix(1 0 0 -1 581 766)" fill="#C2C8D0"/>
<circle cx="1.5" cy="1.5" r="1.5" transform="matrix(1 0 0 -1 584 748)" fill="#C2C8D0"/>
<circle cx="1.5" cy="1.5" r="1.5" transform="matrix(1 0 0 -1 531 742)" fill="#C2C8D0"/>
<rect x="1301.5" y="807.5" width="35" height="35" stroke="#C2C8D0"/>
<circle cx="1319" cy="825" r="9.5" stroke="#C2C8D0"/>
<path d="M138 601H642" stroke="#C2C8D0"/>
<path d="M641.5 515H578L565.5 527.5V578H543L520.5 600.5" stroke="#C2C8D0" stroke-linecap="square" stroke-linejoin="round"/>
<path d="M642.5 828.5V842.5H656.5" stroke="#2E9C1D"/>
<path d="M642.5 152.5V138.5H656.5" stroke="#2E9C1D"/>
<path d="M1301.5 828.5V842.5H1287.5" stroke="#2E9C1D"/>
<path d="M1301.5 152.5V138.5H1287.5" stroke="#2E9C1D"/>
<rect x="48.5" y="731" width="81" height="19" fill="#E8EAED" stroke="#C2C8D0"/>
<rect x="48.5" y="759" width="81" height="19" fill="#E8EAED" stroke="#C2C8D0"/>
<rect x="48.5" y="787" width="81" height="19" fill="#E8EAED" stroke="#C2C8D0"/>
<rect x="48.5" y="815" width="81" height="19" fill="#E8EAED" stroke="#C2C8D0"/>
<path d="M138 601L121 618V658L89 690V730.5" stroke="#C2C8D0"/>
<path d="M1301.5 380L1319 362.5V322.5L1351 290.5V250" stroke="#C2C8D0"/>
<defs>
<filter id="filter0_f_2041_1725" x="676" y="132" width="28" height="52.5" filterUnits="userSpaceOnUse" color-interpolation-filters="sRGB">
<feFlood flood-opacity="0" result="BackgroundImageFix"/>
<feBlend mode="normal" in="SourceGraphic" in2="BackgroundImageFix" result="shape"/>
<feGaussianBlur stdDeviation="3" result="effect1_foregroundBlur_2041_1725"/>
</filter>
<clipPath id="paint0_diamond_2041_1725_clip_path"><path d="M685.5 138H693.5L698 178.5H682L685.5 138Z"/></clipPath><filter id="filter1_f_2041_1725" x="682.5" y="112.646" width="23.8555" height="27.3536" filterUnits="userSpaceOnUse" color-interpolation-filters="sRGB">
<feFlood flood-opacity="0" result="BackgroundImageFix"/>
<feBlend mode="normal" in="SourceGraphic" in2="BackgroundImageFix" result="shape"/>
<feGaussianBlur stdDeviation="1" result="effect1_foregroundBlur_2041_1725"/>
</filter>
<linearGradient id="paint0_diamond_2041_1725" x1="0" y1="0" x2="500" y2="500" gradientUnits="userSpaceOnUse">
<stop offset="0.505" stop-color="#63D651" stop-opacity="0.6"/>
<stop offset="0.74" stop-color="#43CD99" stop-opacity="0.350653"/>
<stop offset="1" stop-color="#15C1FF" stop-opacity="0"/>
</linearGradient>
<linearGradient id="paint1_linear_2041_1725" x1="691.5" y1="70" x2="691.5" y2="138" gradientUnits="userSpaceOnUse">
<stop offset="0.2" stop-color="#DCE0E5" stop-opacity="0"/>
<stop offset="0.52" stop-color="#DCE0E5"/>
</linearGradient>
<linearGradient id="paint2_linear_2041_1725" x1="689.5" y1="70" x2="689.5" y2="138" gradientUnits="userSpaceOnUse">
<stop offset="0.2" stop-color="#DCE0E5" stop-opacity="0"/>
<stop offset="0.52" stop-color="#DCE0E5"/>
</linearGradient>
<linearGradient id="paint3_linear_2041_1725" x1="693.5" y1="70" x2="693.5" y2="138" gradientUnits="userSpaceOnUse">
<stop offset="0.2" stop-color="#DCE0E5" stop-opacity="0"/>
<stop offset="0.52" stop-color="#DCE0E5"/>
</linearGradient>
<linearGradient id="paint4_linear_2041_1725" x1="695.5" y1="82" x2="695.5" y2="111" gradientUnits="userSpaceOnUse">
<stop stop-color="#DCE0E5" stop-opacity="0"/>
<stop offset="1" stop-color="#DCE0E5"/>
</linearGradient>
<linearGradient id="paint5_linear_2041_1725" x1="697.5" y1="70" x2="697.5" y2="138" gradientUnits="userSpaceOnUse">
<stop offset="0.2" stop-color="#DCE0E5" stop-opacity="0"/>
<stop offset="0.52" stop-color="#DCE0E5"/>
</linearGradient>
<linearGradient id="paint6_linear_2041_1725" x1="699.5" y1="70" x2="699.5" y2="138" gradientUnits="userSpaceOnUse">
<stop offset="0.2" stop-color="#DCE0E5" stop-opacity="0"/>
<stop offset="0.52" stop-color="#DCE0E5"/>
</linearGradient>
<linearGradient id="paint7_linear_2041_1725" x1="695.5" y1="116.598" x2="687.365" y2="132.48" gradientUnits="userSpaceOnUse">
<stop stop-color="#15C1FF" stop-opacity="0"/>
<stop offset="1" stop-color="#63D651"/>
</linearGradient>
<linearGradient id="paint8_linear_2041_1725" x1="693.5" y1="116.122" x2="685.078" y2="132.207" gradientUnits="userSpaceOnUse">
<stop stop-color="#15C1FF" stop-opacity="0"/>
<stop offset="1" stop-color="#63D651"/>
</linearGradient>
<linearGradient id="paint9_linear_2041_1725" x1="697.5" y1="117.073" x2="689.651" y2="132.746" gradientUnits="userSpaceOnUse">
<stop stop-color="#15C1FF" stop-opacity="0"/>
<stop offset="1" stop-color="#63D651"/>
</linearGradient>
<linearGradient id="paint10_linear_2041_1725" x1="699.5" y1="117.549" x2="691.936" y2="133.004" gradientUnits="userSpaceOnUse">
<stop stop-color="#15C1FF" stop-opacity="0"/>
<stop offset="1" stop-color="#63D651"/>
</linearGradient>
<linearGradient id="paint11_linear_2041_1725" x1="701.5" y1="118.024" x2="694.219" y2="133.256" gradientUnits="userSpaceOnUse">
<stop stop-color="#15C1FF" stop-opacity="0"/>
<stop offset="1" stop-color="#63D651"/>
</linearGradient>
<linearGradient id="paint12_linear_2041_1725" x1="703.5" y1="118.5" x2="696.5" y2="133.5" gradientUnits="userSpaceOnUse">
<stop stop-color="#15C1FF" stop-opacity="0"/>
<stop offset="1" stop-color="#63D651"/>
</linearGradient>
<linearGradient id="paint13_linear_2041_1725" x1="695.5" y1="116.598" x2="687.365" y2="132.48" gradientUnits="userSpaceOnUse">
<stop stop-color="#15C1FF" stop-opacity="0"/>
<stop offset="1" stop-color="#63D651"/>
</linearGradient>
<linearGradient id="paint14_linear_2041_1725" x1="693.5" y1="116.122" x2="685.078" y2="132.207" gradientUnits="userSpaceOnUse">
<stop stop-color="#15C1FF" stop-opacity="0"/>
<stop offset="1" stop-color="#63D651"/>
</linearGradient>
<linearGradient id="paint15_linear_2041_1725" x1="697.5" y1="117.073" x2="689.651" y2="132.746" gradientUnits="userSpaceOnUse">
<stop stop-color="#15C1FF" stop-opacity="0"/>
<stop offset="1" stop-color="#63D651"/>
</linearGradient>
<linearGradient id="paint16_linear_2041_1725" x1="699.5" y1="117.549" x2="691.936" y2="133.004" gradientUnits="userSpaceOnUse">
<stop stop-color="#15C1FF" stop-opacity="0"/>
<stop offset="1" stop-color="#63D651"/>
</linearGradient>
<linearGradient id="paint17_linear_2041_1725" x1="701.5" y1="118.024" x2="694.219" y2="133.256" gradientUnits="userSpaceOnUse">
<stop stop-color="#15C1FF" stop-opacity="0"/>
<stop offset="1" stop-color="#63D651"/>
</linearGradient>
<linearGradient id="paint18_linear_2041_1725" x1="703.5" y1="118.5" x2="696.5" y2="133.5" gradientUnits="userSpaceOnUse">
<stop stop-color="#15C1FF" stop-opacity="0"/>
<stop offset="1" stop-color="#63D651"/>
</linearGradient>
<linearGradient id="paint19_linear_2041_1725" x1="0" y1="138.5" x2="103" y2="138.5" gradientUnits="userSpaceOnUse">
<stop stop-color="#DCE0E5" stop-opacity="0"/>
<stop offset="1" stop-color="#DCE0E5"/>
</linearGradient>
<linearGradient id="paint20_linear_2041_1725" x1="1302" y1="138.5" x2="1440" y2="138.5" gradientUnits="userSpaceOnUse">
<stop stop-color="#DCE0E5"/>
<stop offset="1" stop-color="#DCE0E5" stop-opacity="0"/>
</linearGradient>
<linearGradient id="paint21_linear_2041_1725" x1="1302" y1="981" x2="1302" y2="843" gradientUnits="userSpaceOnUse">
<stop stop-color="#DCE0E5" stop-opacity="0"/>
<stop offset="1" stop-color="#DCE0E5"/>
</linearGradient>
<linearGradient id="paint22_linear_2041_1725" x1="1337" y1="842.5" x2="1439" y2="842.5" gradientUnits="userSpaceOnUse">
<stop stop-color="#DCE0E5"/>
<stop offset="1" stop-color="#DCE0E5" stop-opacity="0"/>
</linearGradient>
<linearGradient id="paint23_linear_2041_1725" x1="138" y1="842.5" x2="1" y2="842.5" gradientUnits="userSpaceOnUse">
<stop stop-color="#DCE0E5"/>
<stop offset="1" stop-color="#DCE0E5" stop-opacity="0"/>
</linearGradient>
<linearGradient id="paint24_linear_2041_1725" x1="642" y1="981" x2="642" y2="843" gradientUnits="userSpaceOnUse">
<stop stop-color="#DCE0E5" stop-opacity="0"/>
<stop offset="1" stop-color="#DCE0E5"/>
</linearGradient>
<linearGradient id="paint25_linear_2041_1725" x1="137.5" y1="981" x2="137.5" y2="843" gradientUnits="userSpaceOnUse">
<stop stop-color="#DCE0E5" stop-opacity="0"/>
<stop offset="1" stop-color="#DCE0E5"/>
</linearGradient>
<linearGradient id="paint26_linear_2041_1725" x1="137.5" y1="85" x2="137.5" y2="138" gradientUnits="userSpaceOnUse">
<stop stop-color="#DCE0E5" stop-opacity="0"/>
<stop offset="1" stop-color="#DCE0E5"/>
</linearGradient>
<linearGradient id="paint27_linear_2041_1725" x1="642" y1="85" x2="642" y2="138" gradientUnits="userSpaceOnUse">
<stop stop-color="#DCE0E5" stop-opacity="0"/>
<stop offset="1" stop-color="#DCE0E5"/>
</linearGradient>
<linearGradient id="paint28_linear_2041_1725" x1="1301" y1="85" x2="1301" y2="138" gradientUnits="userSpaceOnUse">
<stop stop-color="#DCE0E5" stop-opacity="0"/>
<stop offset="1" stop-color="#DCE0E5"/>
</linearGradient>
</defs>
</svg>
