<svg width="763" height="348" viewBox="0 0 763 348" fill="none" xmlns="http://www.w3.org/2000/svg">
<g clip-path="url(#clip0_2373_2499)">
<path d="M584.91 54.27L666.315 0H1025.1L1046.21 48.24L961.262 140.57C927.008 177.803 878.726 198.99 828.132 198.99H642.195L521.595 337.68L400.995 198.99H214.439C162.452 198.99 112.978 176.625 78.6347 137.598L0 48.24L21.105 0H376.875L457.075 54.27C496.182 78.7119 545.803 78.7119 584.91 54.27Z" fill="#0E161F"/>
<path d="M690.436 289.44H832.141L551.746 603H521.596H491.446L211.051 289.44H352.756L443.206 373.86C488.675 413.646 556.568 413.646 602.037 373.86L690.436 289.44Z" fill="#0E161F"/>
</g>
<defs>
<clipPath id="clip0_2373_2499">
<rect width="763" height="348" fill="white"/>
</clipPath>
</defs>
</svg>
