<svg width="1060" height="344" viewBox="0 0 1060 344" fill="none" xmlns="http://www.w3.org/2000/svg">
<g clip-path="url(#clip0_2006_1634)">
<path d="M592.575 54.9912L675.062 0H1038.61L1060 48.8811L973.928 142.438C939.218 180.166 890.295 201.634 839.029 201.634H650.621L528.419 342.167L406.216 201.634H217.18C164.503 201.634 114.372 178.972 79.5717 139.426L-0.10791 48.8811L21.2776 0H381.775L463.04 54.9912C502.667 79.7579 552.948 79.7579 592.575 54.9912Z" fill="#0E161F"/>
<path d="M699.502 293.286H843.09L558.969 611.013H528.418H497.867L213.746 293.286H357.334L448.986 378.828C495.06 419.142 563.855 419.142 609.928 378.828L699.502 293.286Z" fill="#0E161F"/>
</g>
<defs>
<clipPath id="clip0_2006_1634">
<rect width="1060" height="344" fill="white"/>
</clipPath>
</defs>
</svg>
