<svg width="764" height="344" viewBox="0 0 764 344" fill="none" xmlns="http://www.w3.org/2000/svg">
<path d="M593.575 54.9912L676.062 0H1039.61L1061 48.8811L974.928 142.438C940.218 180.166 891.295 201.634 840.029 201.634H651.621L529.419 342.167L407.216 201.634H218.18C165.503 201.634 115.372 178.972 80.5717 139.426L0.89209 48.8811L22.2776 0H382.775L464.04 54.9912C503.667 79.7579 553.948 79.7579 593.575 54.9912Z" fill="#0E161F"/>
<path d="M700.502 293.286H844.09L559.969 611.013H529.418H498.867L214.746 293.286H358.334L449.986 378.828C496.06 419.142 564.855 419.142 610.928 378.828L700.502 293.286Z" fill="#0E161F"/>
</svg>
