<svg width="380" height="341" viewBox="0 0 380 341" fill="none" xmlns="http://www.w3.org/2000/svg">
<mask id="path-1-inside-1_2409_1988" fill="white">
<path fill-rule="evenodd" clip-rule="evenodd" d="M0 30.2094V341H329.068L380 293.293V0H32.2516L0 30.2094Z"/>
</mask>
<path fill-rule="evenodd" clip-rule="evenodd" d="M0 30.2094V341H329.068L380 293.293V0H32.2516L0 30.2094Z" fill="white" fill-opacity="0.1"/>
<path d="M0 30.2094L-0.683623 29.4796L-1 29.776V30.2094H0ZM0 341H-1V342H0V341ZM329.068 341V342H329.463L329.751 341.73L329.068 341ZM380 293.293L380.684 294.022L381 293.726V293.293H380ZM380 0H381V-1H380V0ZM32.2516 0V-1H31.8564L31.5679 -0.729835L32.2516 0ZM-1 30.2094V341H1V30.2094H-1ZM0 342H329.068V340H0V342ZM329.751 341.73L380.684 294.022L379.316 292.563L328.384 340.27L329.751 341.73ZM381 293.293V0H379V293.293H381ZM380 -1H32.2516V1H380V-1ZM31.5679 -0.729835L-0.683623 29.4796L0.683623 30.9393L32.9352 0.729835L31.5679 -0.729835Z" fill="black" mask="url(#path-1-inside-1_2409_1988)"/>
<rect x="16.5" y="246.5" width="128" height="20" stroke="black"/>
</svg>
