<svg width="12" height="12" viewBox="0 0 12 12" fill="none" xmlns="http://www.w3.org/2000/svg">
<path d="M2.45348 10.8396C1.79233 10.3552 1.23746 9.74033 0.823106 9.03311C0.40875 8.32589 0.143693 7.54127 0.0442872 6.72766C-0.0551187 5.91404 0.0132346 5.08869 0.24513 4.30251C0.477026 3.51633 0.867546 2.786 1.3926 2.15658L1.9106 2.58869C1.44458 3.14735 1.09796 3.79556 0.892138 4.49335C0.686314 5.19114 0.625645 5.92371 0.713875 6.64585C0.802105 7.36799 1.03736 8.0644 1.40513 8.69211C1.7729 9.31981 2.26539 9.86551 2.85221 10.2955L2.45348 10.8396Z" fill="#63D651"/>
<path d="M11.9931 6.28696C11.9539 7.10569 11.7474 7.9077 11.3863 8.64352C11.0251 9.37934 10.5171 10.0334 9.8934 10.5652C9.26973 11.0971 8.54371 11.4956 7.7601 11.736C6.9765 11.9765 6.15194 12.0538 5.33729 11.9633L5.4118 11.2928C6.13486 11.3732 6.86671 11.3046 7.56222 11.0911C8.25772 10.8777 8.90212 10.5241 9.45567 10.052C10.0092 9.5799 10.4602 8.99941 10.7807 8.34632C11.1012 7.69322 11.2845 6.98138 11.3193 6.2547L11.9931 6.28696Z" fill="#63D651"/>
<path d="M3.53109 0.531502C4.27814 0.194222 5.08638 0.013586 5.90595 0.000737219C6.72551 -0.0121115 7.53901 0.1431 8.29628 0.456795C9.05354 0.770491 9.73849 1.23602 10.3089 1.82466C10.8793 2.4133 11.323 3.11257 11.6127 3.87933L10.9817 4.11775C10.7246 3.4372 10.3307 2.81654 9.82445 2.29408C9.31818 1.77162 8.71023 1.35843 8.03811 1.08001C7.36599 0.801578 6.64394 0.663817 5.91652 0.675222C5.1891 0.686626 4.47173 0.846953 3.80866 1.14631L3.53109 0.531502Z" fill="#63D651"/>
<circle cx="6" cy="6" r="3" fill="#63D651"/>
</svg>
