<svg width="24" height="24" viewBox="0 0 24 24" fill="none" xmlns="http://www.w3.org/2000/svg">
<g clip-path="url(#clip0_1615_903)">
<path d="M5.25 4.5H18.75V15H5.25V4.5Z" fill="#0D1521"/>
<path d="M12.75 7.5H11.25V13.5H12.75V7.5Z" fill="white"/>
<path d="M16.5 10.5H15V13.5H16.5V10.5Z" fill="white"/>
<path d="M9 9H7.5V13.5H9V9Z" fill="white"/>
<path d="M18.75 3H12.75V1.5H11.25V3H5.25C4.85218 3 4.47064 3.15804 4.18934 3.43934C3.90804 3.72064 3.75 4.10218 3.75 4.5V15C3.75 15.3978 3.90804 15.7794 4.18934 16.0607C4.47064 16.342 4.85218 16.5 5.25 16.5H11.25V21H8.25V22.5H15.75V21H12.75V16.5H18.75C19.1478 16.5 19.5294 16.342 19.8107 16.0607C20.092 15.7794 20.25 15.3978 20.25 15V4.5C20.25 4.10218 20.092 3.72064 19.8107 3.43934C19.5294 3.15804 19.1478 3 18.75 3ZM18.75 15H5.25V4.5H18.75V15Z" fill="#0D1521"/>
</g>
<defs>
<clipPath id="clip0_1615_903">
<rect width="24" height="24" fill="white"/>
</clipPath>
</defs>
</svg>
