<svg width="24" height="24" viewBox="0 0 24 24" fill="none" xmlns="http://www.w3.org/2000/svg">
<path d="M22.5524 6.0036L15.8372 6L14.1908 6.92881C13.6808 7.27726 13.0904 7.45029 12.5 7.44909C11.9096 7.45029 11.3192 7.27726 10.8092 6.92881L9.1628 6L2.4476 6.0036L2 7.00691L3.7676 8.96066C4.334 9.59869 5.1476 9.96396 6.002 9.96396H10.166L12.5 12.7204L14.834 9.96396H18.998C19.8524 9.96396 20.666 9.59869 21.2324 8.96066L23 7.00691L22.5524 6.0036Z" fill="#131E29"/>
<path d="M14.7388 13.0352C14.1425 13.7 13.3207 14.0312 12.5 14.0264C11.6794 14.03 10.8576 13.7 10.2613 13.0352L9.11669 11.7595H6.29004L11.899 17.9998H13.1011L18.71 11.7595H15.8834L14.7388 13.0352Z" fill="#131E29"/>
</svg>
