<svg width="24" height="24" viewBox="0 0 24 24" fill="none" xmlns="http://www.w3.org/2000/svg">
<path d="M19.7607 13.0061L21.0067 14.2521L22.2527 13.0061" stroke="#0D1521" stroke-width="1.5" stroke-linecap="round" stroke-linejoin="round"/>
<path d="M4.23901 10.994L2.99301 9.74805L1.74701 10.994" stroke="#0D1521" stroke-width="1.5" stroke-linecap="round" stroke-linejoin="round"/>
<path d="M7.58701 10.729C7.58701 9.91801 8.24501 9.26001 9.05601 9.26001C9.86701 9.26001 10.525 9.91801 10.525 10.729C10.525 12.565 7.58801 12.565 7.58801 14.739H10.525" stroke="#0D1521" stroke-width="1.5259" stroke-linecap="round" stroke-linejoin="round"/>
<path d="M15.894 12.03L13.382 12.003C13.24 12.001 13.125 11.886 13.125 11.743V9.26099" stroke="#0D1521" stroke-width="1.5259" stroke-linecap="round" stroke-linejoin="round"/>
<path d="M15.8896 9.32007V14.7401" stroke="#0D1521" stroke-width="1.5259" stroke-linecap="round" stroke-linejoin="round"/>
<path d="M19.023 17.6279C17.372 19.6819 14.843 20.9999 12.002 20.9999H12H11.998C7.02401 20.9999 2.99301 16.9699 2.99301 11.9979C2.99301 11.3039 3.07901 10.6309 3.22801 9.98193" stroke="#0D1521" stroke-width="1.5" stroke-linecap="round" stroke-linejoin="round"/>
<path d="M4.98138 6.372C6.63138 4.318 9.16138 3 12.0024 3C16.9764 3 21.0074 7.03 21.0074 12.002C21.0074 12.696 20.9214 13.369 20.7724 14.018" stroke="#0D1521" stroke-width="1.5" stroke-linecap="round" stroke-linejoin="round"/>
</svg>
