<svg width="28" height="32" viewBox="0 0 28 32" fill="none" xmlns="http://www.w3.org/2000/svg">
<mask id="path-1-inside-1_1635_748" fill="white">
<path d="M0 -0.000244141H28V31.9998H0V-0.000244141Z"/>
</mask>
<path d="M0 0.999756H28V-1.00024H0V0.999756ZM28 30.9998H0V32.9998H28V30.9998Z" fill="white" fill-opacity="0.8" mask="url(#path-1-inside-1_1635_748)"/>
<g clip-path="url(#clip0_1635_748)">
<path d="M13.5534 15.5588L8.55505 20.5571L9.43894 21.441L14.4373 16.4427L13.5534 15.5588Z" fill="white" fill-opacity="0.8"/>
<path d="M14.625 24.7498C14.5459 24.75 14.4674 24.7351 14.3938 24.706C14.2914 24.6652 14.2016 24.5981 14.1335 24.5113C14.0655 24.4246 14.0216 24.3215 14.0063 24.2123L13.3813 19.8373L14.6313 19.6623L15.1 22.956L17.125 21.3248V16.6248C17.1245 16.5425 17.1403 16.461 17.1714 16.3849C17.2025 16.3087 17.2483 16.2394 17.3063 16.181L19.85 13.6373C20.3742 13.1167 20.7899 12.4973 21.0731 11.815C21.3563 11.1327 21.5014 10.401 21.5 9.66229V8.49979H20.3375C19.5988 8.49839 18.8671 8.6435 18.1848 8.92672C17.5025 9.20994 16.8831 9.62565 16.3625 10.1498L13.8188 12.6935C13.7604 12.7515 13.6911 12.7973 13.615 12.8284C13.5388 12.8595 13.4573 12.8753 13.375 12.8748H8.67501L7.04376 14.9123L10.3375 15.381L10.1625 16.631L5.78751 16.006C5.67835 15.9907 5.57518 15.9468 5.48847 15.8788C5.40175 15.8107 5.33458 15.7209 5.29376 15.6185C5.25244 15.5154 5.23934 15.4032 5.25582 15.2933C5.27229 15.1835 5.31775 15.08 5.38751 14.9935L7.88751 11.8685C7.94509 11.7937 8.01886 11.7329 8.10329 11.6907C8.18772 11.6485 8.28062 11.626 8.37501 11.6248H13.1188L15.475 9.26229C16.112 8.62174 16.8698 8.114 17.7045 7.76854C18.5392 7.42307 19.4342 7.24675 20.3375 7.24979H21.5C21.8315 7.24979 22.1495 7.38149 22.3839 7.61591C22.6183 7.85033 22.75 8.16827 22.75 8.49979V9.66229C22.7531 10.5656 22.5767 11.4606 22.2313 12.2953C21.8858 13.13 21.3781 13.8878 20.7375 14.5248L18.375 16.881V21.6248C18.3746 21.7187 18.353 21.8112 18.3119 21.8956C18.2708 21.98 18.2112 22.0541 18.1375 22.1123L15.0125 24.6123C14.9025 24.7005 14.766 24.749 14.625 24.7498Z" fill="white" fill-opacity="0.8"/>
</g>
<defs>
<clipPath id="clip0_1635_748">
<rect width="20" height="20" fill="white" transform="translate(4 5.99976)"/>
</clipPath>
</defs>
</svg>
