<svg width="24" height="24" viewBox="0 0 24 24" fill="none" xmlns="http://www.w3.org/2000/svg">
<path d="M19.7606 13.0061L21.0066 14.2521L22.2526 13.0061" stroke="#0D1521" stroke-width="1.5" stroke-linecap="round" stroke-linejoin="round"/>
<path d="M4.23895 10.994L2.99295 9.74805L1.74695 10.994" stroke="#0D1521" stroke-width="1.5" stroke-linecap="round" stroke-linejoin="round"/>
<path d="M7.58691 10.729C7.58691 9.91801 8.24491 9.26001 9.05591 9.26001C9.86691 9.26001 10.5249 9.91801 10.5249 10.729C10.5249 12.565 7.58791 12.565 7.58791 14.739H10.5249" stroke="#0D1521" stroke-width="1.5259" stroke-linecap="round" stroke-linejoin="round"/>
<path d="M15.894 12.03L13.382 12.003C13.24 12.001 13.125 11.886 13.125 11.743V9.26099" stroke="#0D1521" stroke-width="1.5259" stroke-linecap="round" stroke-linejoin="round"/>
<path d="M15.8895 9.32007V14.7401" stroke="#0D1521" stroke-width="1.5259" stroke-linecap="round" stroke-linejoin="round"/>
<path d="M19.0229 17.6279C17.3719 19.6819 14.8429 20.9999 12.0019 20.9999H11.9999H11.9979C7.02392 20.9999 2.99292 16.9699 2.99292 11.9979C2.99292 11.3039 3.07892 10.6309 3.22792 9.98193" stroke="#0D1521" stroke-width="1.5" stroke-linecap="round" stroke-linejoin="round"/>
<path d="M4.98132 6.372C6.63132 4.318 9.16132 3 12.0023 3C16.9763 3 21.0073 7.03 21.0073 12.002C21.0073 12.696 20.9213 13.369 20.7723 14.018" stroke="#0D1521" stroke-width="1.5" stroke-linecap="round" stroke-linejoin="round"/>
</svg>
