<svg width="380" height="33" viewBox="0 0 380 33" fill="none" xmlns="http://www.w3.org/2000/svg">
<path opacity="0.2" d="M36 6L62.5 32.5L245 32.5L271.5 5.99998L353 5.99998L379.5 32.5" stroke="white"/>
<g opacity="0.2">
<circle cx="3" cy="6" r="3" fill="white"/>
<circle cx="15" cy="6" r="3" fill="white"/>
<circle cx="27" cy="6" r="3" fill="white"/>
</g>
<path opacity="0.2" d="M40.3333 3.5C40.3333 4.97276 41.5272 6.16667 43 6.16667C44.4728 6.16667 45.6667 4.97276 45.6667 3.5C45.6667 2.02724 44.4728 0.833333 43 0.833333C41.5272 0.833333 40.3333 2.02724 40.3333 3.5ZM65 25.5L64.6464 25.8536L64.7929 26H65V25.5ZM90.3333 25.5C90.3333 26.9728 91.5272 28.1667 93 28.1667C94.4728 28.1667 95.6667 26.9728 95.6667 25.5C95.6667 24.0272 94.4728 22.8333 93 22.8333C91.5272 22.8333 90.3333 24.0272 90.3333 25.5ZM42.6464 3.85355L64.6464 25.8536L65.3536 25.1464L43.3536 3.14645L42.6464 3.85355ZM65 26H93V25H65V26Z" fill="white"/>
</svg>
