<svg width="1344" height="34" viewBox="0 0 1344 34" fill="none" xmlns="http://www.w3.org/2000/svg">
<mask id="path-1-inside-1_2059_480" fill="white">
<path d="M0 0H1344V34H0V0Z"/>
</mask>
<path d="M0 2H1344V-2H0V2Z" fill="#2D3847" mask="url(#path-1-inside-1_2059_480)"/>
<path d="M3.5 24.9091C3.5 24.3655 3.63258 23.87 3.89773 23.4226C4.16288 22.9751 4.51918 22.6188 4.96662 22.3537C5.41406 22.0885 5.90956 21.956 6.45312 21.956C6.92377 21.956 7.35795 22.0571 7.75568 22.2592C8.15672 22.4614 8.48816 22.7382 8.75 23.0895C9.01184 23.4375 9.17424 23.8319 9.23722 24.2727H8.03409C7.9678 23.9313 7.78385 23.6529 7.48224 23.4375C7.18063 23.2188 6.83759 23.1094 6.45312 23.1094C6.12169 23.1094 5.82008 23.1906 5.5483 23.353C5.27652 23.5154 5.05942 23.7325 4.89702 24.0043C4.73461 24.276 4.65341 24.5777 4.65341 24.9091C4.65341 25.2405 4.73461 25.5421 4.89702 25.8139C5.05942 26.0857 5.27652 26.3028 5.5483 26.4652C5.82008 26.6276 6.12169 26.7088 6.45312 26.7088C6.83759 26.7088 7.16241 26.6011 7.42756 26.3857C7.69602 26.1669 7.86506 25.8868 7.93466 25.5455H9.13778C9.07481 25.9863 8.92069 26.3823 8.67543 26.7337C8.43016 27.0817 8.11529 27.3568 7.73082 27.5589C7.34967 27.7611 6.92377 27.8622 6.45312 27.8622C5.90956 27.8622 5.41406 27.7296 4.96662 27.4645C4.51918 27.1993 4.16288 26.843 3.89773 26.3956C3.63258 25.9482 3.5 25.4527 3.5 24.9091ZM6.40341 30.1591C5.68087 30.1591 5.00142 30.0232 4.36506 29.7514C3.73201 29.4796 3.17353 29.1035 2.68963 28.6229C2.20904 28.139 1.8312 27.5805 1.55611 26.9474C1.28433 26.3144 1.15009 25.6349 1.15341 24.9091C1.15672 24.1832 1.29427 23.5038 1.56605 22.8707C1.84115 22.2377 2.21899 21.6809 2.69957 21.2003C3.18016 20.7164 3.73698 20.3385 4.37003 20.0668C5.00308 19.795 5.68087 19.6591 6.40341 19.6591C7.12926 19.6591 7.80871 19.795 8.44176 20.0668C9.07813 20.3385 9.63494 20.7164 10.1122 21.2003C10.5928 21.6809 10.969 22.2377 11.2408 22.8707C11.5125 23.5038 11.6501 24.1832 11.6534 24.9091C11.6567 25.6349 11.5225 26.3144 11.2507 26.9474C10.9789 27.5805 10.6027 28.139 10.1222 28.6229C9.64157 29.1035 9.0831 29.4796 8.44673 29.7514C7.81037 30.0232 7.12926 30.1591 6.40341 30.1591ZM6.40341 29.0057C6.97017 29.0057 7.50213 28.8996 7.99929 28.6875C8.49645 28.4754 8.93229 28.1821 9.30682 27.8075C9.68134 27.433 9.97467 26.9988 10.1868 26.505C10.3989 26.0078 10.5033 25.4775 10.5 24.9141C10.4967 24.3473 10.389 23.8153 10.1768 23.3182C9.96473 22.821 9.6714 22.3852 9.29688 22.0107C8.92235 21.6361 8.48816 21.3428 7.99432 21.1307C7.50047 20.9186 6.97017 20.8125 6.40341 20.8125C5.83996 20.8125 5.31132 20.9186 4.81747 21.1307C4.32363 21.3428 3.88944 21.6378 3.51491 22.0156C3.14039 22.3902 2.84541 22.826 2.62997 23.3232C2.41785 23.817 2.31013 24.3473 2.30682 24.9141C2.3035 25.4742 2.40791 26.0028 2.62003 26.5C2.83215 26.9938 3.12547 27.428 3.5 27.8026C3.87784 28.1771 4.31368 28.4721 4.80753 28.6875C5.30469 28.8996 5.83665 29.0057 6.40341 29.0057ZM17.9786 19.8182L21.0013 28.3892H21.1207L24.1434 19.8182H25.436L21.6974 30H20.4246L16.686 19.8182H17.9786ZM26.8119 30V19.8182H32.9568V20.9119H28.0449V24.3523H32.6386V25.446H28.0449V28.9062H33.0364V30H26.8119ZM41.9294 23C41.82 22.6652 41.6758 22.3653 41.4968 22.1001C41.3212 21.8317 41.1107 21.603 40.8654 21.4141C40.6235 21.2251 40.3484 21.081 40.0401 20.9815C39.7319 20.8821 39.3938 20.8324 39.0259 20.8324C38.4227 20.8324 37.8742 20.9882 37.3803 21.2997C36.8865 21.6113 36.4937 22.0703 36.2021 22.6768C35.9104 23.2834 35.7646 24.0275 35.7646 24.9091C35.7646 25.7907 35.9121 26.5348 36.2071 27.1413C36.502 27.7479 36.9014 28.2069 37.4052 28.5185C37.909 28.83 38.4758 28.9858 39.1055 28.9858C39.6888 28.9858 40.2026 28.8615 40.6467 28.6129C41.0941 28.361 41.4421 28.0064 41.6907 27.549C41.9426 27.0883 42.0686 26.5464 42.0686 25.9233L42.4464 26.0028H39.3839V24.9091H43.2617V26.0028C43.2617 26.8414 43.0828 27.5705 42.7248 28.1903C42.3702 28.8101 41.8796 29.2907 41.2532 29.6321C40.6301 29.9702 39.9142 30.1392 39.1055 30.1392C38.204 30.1392 37.4118 29.9271 36.7291 29.5028C36.0496 29.0786 35.5193 28.4754 35.1382 27.6932C34.7603 26.911 34.5714 25.983 34.5714 24.9091C34.5714 24.1037 34.6791 23.3795 34.8946 22.7365C35.1133 22.0902 35.4215 21.54 35.8193 21.0859C36.217 20.6319 36.6876 20.2839 37.2312 20.0419C37.7748 19.8 38.373 19.679 39.0259 19.679C39.5629 19.679 40.0634 19.7602 40.5274 19.9226C40.9947 20.0817 41.4107 20.3087 41.7752 20.6037C42.1431 20.8954 42.4497 21.245 42.695 21.6527C42.9402 22.0571 43.1093 22.5062 43.2021 23H41.9294ZM45.2666 30H43.974L47.7126 19.8182H48.9853L52.724 30H51.4314L48.3887 21.429H48.3092L45.2666 30ZM45.7439 26.0227H50.9541V27.1165H45.7439V26.0227ZM62.0433 24.3622V25.456H57.5888V24.3622H62.0433ZM67.6054 30V29.1051L70.9662 25.4261C71.3606 24.9953 71.6854 24.6207 71.9406 24.3026C72.1958 23.9811 72.3847 23.6795 72.5074 23.3977C72.6333 23.1127 72.6963 22.8144 72.6963 22.5028C72.6963 22.1449 72.6101 21.835 72.4378 21.5732C72.2687 21.3113 72.0367 21.1091 71.7417 20.9666C71.4468 20.8241 71.1153 20.7528 70.7474 20.7528C70.3563 20.7528 70.0149 20.834 69.7233 20.9964C69.4349 21.1555 69.2112 21.3793 69.0521 21.6676C68.8963 21.956 68.8185 22.294 68.8185 22.6818H67.6452C67.6452 22.0852 67.7827 21.5616 68.0578 21.1108C68.3329 20.66 68.7074 20.3087 69.1814 20.0568C69.6587 19.8049 70.1939 19.679 70.7872 19.679C71.3838 19.679 71.9124 19.8049 72.3731 20.0568C72.8338 20.3087 73.1951 20.6484 73.4569 21.076C73.7188 21.5036 73.8497 21.9792 73.8497 22.5028C73.8497 22.8774 73.7818 23.2436 73.6459 23.6016C73.5133 23.9562 73.2813 24.3523 72.9498 24.7898C72.6217 25.224 72.166 25.7543 71.5827 26.3807L69.2957 28.8267V28.9062H74.0287V30H67.6054ZM79.193 30.1392C78.4439 30.1392 77.8059 29.9354 77.2789 29.5277C76.7519 29.1167 76.3492 28.5218 76.0708 27.7429C75.7924 26.9607 75.6532 26.0161 75.6532 24.9091C75.6532 23.8087 75.7924 22.8691 76.0708 22.0902C76.3525 21.308 76.7569 20.7114 77.2839 20.3004C77.8142 19.8861 78.4505 19.679 79.193 19.679C79.9354 19.679 80.5701 19.8861 81.0971 20.3004C81.6274 20.7114 82.0317 21.308 82.3102 22.0902C82.5919 22.8691 82.7327 23.8087 82.7327 24.9091C82.7327 26.0161 82.5935 26.9607 82.3151 27.7429C82.0367 28.5218 81.634 29.1167 81.107 29.5277C80.58 29.9354 79.942 30.1392 79.193 30.1392ZM79.193 29.0455C79.9354 29.0455 80.5121 28.6875 80.9231 27.9716C81.3341 27.2557 81.5396 26.2348 81.5396 24.9091C81.5396 24.0275 81.4451 23.2768 81.2562 22.657C81.0706 22.0372 80.8021 21.5649 80.4508 21.2401C80.1028 20.9152 79.6835 20.7528 79.193 20.7528C78.4572 20.7528 77.8821 21.1158 77.4678 21.8416C77.0535 22.5642 76.8464 23.5866 76.8464 24.9091C76.8464 25.7907 76.9392 26.5398 77.1248 27.1562C77.3104 27.7727 77.5772 28.2417 77.9252 28.5632C78.2765 28.8847 78.6991 29.0455 79.193 29.0455ZM84.4119 30V29.1051L87.7727 25.4261C88.1672 24.9953 88.492 24.6207 88.7472 24.3026C89.0024 23.9811 89.1913 23.6795 89.3139 23.3977C89.4399 23.1127 89.5029 22.8144 89.5029 22.5028C89.5029 22.1449 89.4167 21.835 89.2443 21.5732C89.0753 21.3113 88.8433 21.1091 88.5483 20.9666C88.2533 20.8241 87.9219 20.7528 87.554 20.7528C87.1629 20.7528 86.8215 20.834 86.5298 20.9964C86.2415 21.1555 86.0178 21.3793 85.8587 21.6676C85.7029 21.956 85.625 22.294 85.625 22.6818H84.4517C84.4517 22.0852 84.5893 21.5616 84.8644 21.1108C85.1395 20.66 85.514 20.3087 85.9879 20.0568C86.4652 19.8049 87.0005 19.679 87.5938 19.679C88.1904 19.679 88.719 19.8049 89.1797 20.0568C89.6404 20.3087 90.0017 20.6484 90.2635 21.076C90.5253 21.5036 90.6563 21.9792 90.6563 22.5028C90.6563 22.8774 90.5883 23.2436 90.4524 23.6016C90.3199 23.9562 90.0878 24.3523 89.7564 24.7898C89.4283 25.224 88.9726 25.7543 88.3892 26.3807L86.1023 28.8267V28.9062H90.8352V30H84.4119ZM95.8603 30.1392C95.277 30.1392 94.7517 30.0232 94.2843 29.7912C93.817 29.5592 93.4425 29.241 93.1608 28.8366C92.879 28.4323 92.7249 27.9716 92.6984 27.4545H93.8916C93.938 27.9152 94.1468 28.2964 94.518 28.598C94.8925 28.8963 95.34 29.0455 95.8603 29.0455C96.2779 29.0455 96.6492 28.9477 96.974 28.7521C97.3021 28.5566 97.559 28.2881 97.7446 27.9467C97.9335 27.602 98.0279 27.2126 98.0279 26.7784C98.0279 26.3343 97.9302 25.9382 97.7346 25.5902C97.5424 25.2389 97.2772 24.9621 96.9392 24.7599C96.6011 24.5578 96.215 24.455 95.7808 24.4517C95.4692 24.4484 95.1494 24.4964 94.8213 24.5959C94.4931 24.692 94.223 24.8163 94.0109 24.9688L92.8575 24.8295L93.474 19.8182H98.7637V20.9119H94.5081L94.1501 23.9148H94.2098C94.4186 23.7491 94.6804 23.6115 94.9953 23.5021C95.3101 23.3928 95.6383 23.3381 95.9796 23.3381C96.6028 23.3381 97.1579 23.4872 97.6451 23.7855C98.1357 24.0805 98.5201 24.4848 98.7985 24.9986C99.0803 25.5123 99.2211 26.099 99.2211 26.7585C99.2211 27.4081 99.0753 27.9882 98.7836 28.4986C98.4953 29.0057 98.0975 29.4067 97.5904 29.7017C97.0833 29.9934 96.5066 30.1392 95.8603 30.1392ZM101.478 30.0795C101.233 30.0795 101.023 29.9917 100.847 29.8161C100.671 29.6404 100.583 29.4299 100.583 29.1847C100.583 28.9394 100.671 28.7289 100.847 28.5533C101.023 28.3776 101.233 28.2898 101.478 28.2898C101.724 28.2898 101.934 28.3776 102.11 28.5533C102.285 28.7289 102.373 28.9394 102.373 29.1847C102.373 29.3471 102.332 29.4962 102.249 29.6321C102.169 29.768 102.062 29.8774 101.926 29.9602C101.793 30.0398 101.644 30.0795 101.478 30.0795ZM107.598 20.9119V19.8182H115.235V20.9119H112.033V30H110.8V20.9119H107.598ZM125.095 24.9091C125.095 25.983 124.901 26.911 124.513 27.6932C124.125 28.4754 123.593 29.0786 122.917 29.5028C122.241 29.9271 121.469 30.1392 120.6 30.1392C119.732 30.1392 118.96 29.9271 118.284 29.5028C117.608 29.0786 117.076 28.4754 116.688 27.6932C116.3 26.911 116.106 25.983 116.106 24.9091C116.106 23.8352 116.3 22.9072 116.688 22.125C117.076 21.3428 117.608 20.7396 118.284 20.3153C118.96 19.8911 119.732 19.679 120.6 19.679C121.469 19.679 122.241 19.8911 122.917 20.3153C123.593 20.7396 124.125 21.3428 124.513 22.125C124.901 22.9072 125.095 23.8352 125.095 24.9091ZM123.902 24.9091C123.902 24.0275 123.754 23.2834 123.459 22.6768C123.167 22.0703 122.771 21.6113 122.271 21.2997C121.774 20.9882 121.217 20.8324 120.6 20.8324C119.984 20.8324 119.425 20.9882 118.925 21.2997C118.428 21.6113 118.032 22.0703 117.737 22.6768C117.445 23.2834 117.299 24.0275 117.299 24.9091C117.299 25.7907 117.445 26.5348 117.737 27.1413C118.032 27.7479 118.428 28.2069 118.925 28.5185C119.425 28.83 119.984 28.9858 120.6 28.9858C121.217 28.9858 121.774 28.83 122.271 28.5185C122.771 28.2069 123.167 27.7479 123.459 27.1413C123.754 26.5348 123.902 25.7907 123.902 24.9091ZM130.1 30H126.958V19.8182H130.239C131.227 19.8182 132.072 20.022 132.775 20.4297C133.477 20.834 134.016 21.4157 134.39 22.1747C134.765 22.9304 134.952 23.8352 134.952 24.8892C134.952 25.9498 134.763 26.8629 134.385 27.6286C134.008 28.3909 133.457 28.9775 132.735 29.3885C132.012 29.7962 131.134 30 130.1 30ZM128.191 28.9062H130.02C130.862 28.9062 131.56 28.7438 132.113 28.419C132.667 28.0942 133.08 27.6319 133.351 27.032C133.623 26.4321 133.759 25.7178 133.759 24.8892C133.759 24.0672 133.625 23.3596 133.356 22.7663C133.088 22.1697 132.687 21.7124 132.153 21.3942C131.62 21.0727 130.955 20.9119 130.16 20.9119H128.191V28.9062ZM145.401 24.9091C145.401 25.983 145.207 26.911 144.82 27.6932C144.432 28.4754 143.9 29.0786 143.224 29.5028C142.548 29.9271 141.775 30.1392 140.907 30.1392C140.039 30.1392 139.266 29.9271 138.59 29.5028C137.914 29.0786 137.382 28.4754 136.994 27.6932C136.607 26.911 136.413 25.983 136.413 24.9091C136.413 23.8352 136.607 22.9072 136.994 22.125C137.382 21.3428 137.914 20.7396 138.59 20.3153C139.266 19.8911 140.039 19.679 140.907 19.679C141.775 19.679 142.548 19.8911 143.224 20.3153C143.9 20.7396 144.432 21.3428 144.82 22.125C145.207 22.9072 145.401 23.8352 145.401 24.9091ZM144.208 24.9091C144.208 24.0275 144.061 23.2834 143.766 22.6768C143.474 22.0703 143.078 21.6113 142.577 21.2997C142.08 20.9882 141.523 20.8324 140.907 20.8324C140.29 20.8324 139.732 20.9882 139.232 21.2997C138.734 21.6113 138.338 22.0703 138.043 22.6768C137.752 23.2834 137.606 24.0275 137.606 24.9091C137.606 25.7907 137.752 26.5348 138.043 27.1413C138.338 27.7479 138.734 28.2069 139.232 28.5185C139.732 28.83 140.29 28.9858 140.907 28.9858C141.523 28.9858 142.08 28.83 142.577 28.5185C143.078 28.2069 143.474 27.7479 143.766 27.1413C144.061 26.5348 144.208 25.7907 144.208 24.9091ZM152.833 22.3636C152.773 21.8598 152.531 21.4688 152.107 21.1903C151.683 20.9119 151.162 20.7727 150.546 20.7727C150.095 20.7727 149.701 20.8456 149.362 20.9915C149.028 21.1373 148.766 21.3378 148.577 21.593C148.391 21.8482 148.299 22.1383 148.299 22.4631C148.299 22.7348 148.363 22.9685 148.492 23.1641C148.625 23.3563 148.794 23.517 149 23.6463C149.205 23.7723 149.42 23.8767 149.646 23.9595C149.871 24.0391 150.078 24.1037 150.267 24.1534L151.301 24.4318C151.567 24.5014 151.861 24.5975 152.186 24.7202C152.514 24.8428 152.828 25.0102 153.126 25.2223C153.428 25.4311 153.676 25.6996 153.872 26.0277C154.067 26.3558 154.165 26.7585 154.165 27.2358C154.165 27.786 154.021 28.2831 153.732 28.7273C153.447 29.1714 153.03 29.5244 152.48 29.7862C151.933 30.0481 151.268 30.179 150.486 30.179C149.757 30.179 149.125 30.0613 148.592 29.826C148.062 29.5907 147.644 29.2625 147.339 28.8416C147.037 28.4207 146.867 27.9318 146.827 27.375H148.1C148.133 27.7595 148.262 28.0777 148.487 28.3295C148.716 28.5781 149.004 28.7637 149.353 28.8864C149.704 29.0057 150.082 29.0653 150.486 29.0653C150.957 29.0653 151.379 28.9891 151.754 28.8366C152.128 28.6809 152.425 28.4654 152.644 28.1903C152.862 27.9119 152.972 27.5871 152.972 27.2159C152.972 26.8778 152.877 26.6027 152.688 26.3906C152.5 26.1785 152.251 26.0062 151.943 25.8736C151.634 25.741 151.301 25.625 150.943 25.5256L149.691 25.1676C148.895 24.9389 148.265 24.6125 147.801 24.1882C147.337 23.764 147.105 23.2088 147.105 22.5227C147.105 21.9527 147.259 21.4555 147.568 21.0312C147.879 20.6037 148.297 20.2723 148.821 20.0369C149.348 19.7983 149.936 19.679 150.585 19.679C151.242 19.679 151.825 19.7966 152.335 20.032C152.846 20.264 153.25 20.5821 153.549 20.9865C153.85 21.3909 154.009 21.8499 154.026 22.3636H152.833ZM168.301 24.9091C168.301 25.983 168.107 26.911 167.719 27.6932C167.331 28.4754 166.799 29.0786 166.123 29.5028C165.447 29.9271 164.675 30.1392 163.806 30.1392C162.938 30.1392 162.166 29.9271 161.489 29.5028C160.813 29.0786 160.281 28.4754 159.894 27.6932C159.506 26.911 159.312 25.983 159.312 24.9091C159.312 23.8352 159.506 22.9072 159.894 22.125C160.281 21.3428 160.813 20.7396 161.489 20.3153C162.166 19.8911 162.938 19.679 163.806 19.679C164.675 19.679 165.447 19.8911 166.123 20.3153C166.799 20.7396 167.331 21.3428 167.719 22.125C168.107 22.9072 168.301 23.8352 168.301 24.9091ZM167.107 24.9091C167.107 24.0275 166.96 23.2834 166.665 22.6768C166.373 22.0703 165.977 21.6113 165.477 21.2997C164.98 20.9882 164.423 20.8324 163.806 20.8324C163.19 20.8324 162.631 20.9882 162.131 21.2997C161.634 21.6113 161.238 22.0703 160.943 22.6768C160.651 23.2834 160.505 24.0275 160.505 24.9091C160.505 25.7907 160.651 26.5348 160.943 27.1413C161.238 27.7479 161.634 28.2069 162.131 28.5185C162.631 28.83 163.19 28.9858 163.806 28.9858C164.423 28.9858 164.98 28.83 165.477 28.5185C165.977 28.2069 166.373 27.7479 166.665 27.1413C166.96 26.5348 167.107 25.7907 167.107 24.9091ZM175.732 22.3636C175.672 21.8598 175.43 21.4688 175.006 21.1903C174.582 20.9119 174.061 20.7727 173.445 20.7727C172.994 20.7727 172.6 20.8456 172.262 20.9915C171.927 21.1373 171.665 21.3378 171.476 21.593C171.291 21.8482 171.198 22.1383 171.198 22.4631C171.198 22.7348 171.262 22.9685 171.392 23.1641C171.524 23.3563 171.693 23.517 171.899 23.6463C172.104 23.7723 172.32 23.8767 172.545 23.9595C172.771 24.0391 172.978 24.1037 173.167 24.1534L174.201 24.4318C174.466 24.5014 174.761 24.5975 175.086 24.7202C175.414 24.8428 175.727 25.0102 176.025 25.2223C176.327 25.4311 176.575 25.6996 176.771 26.0277C176.967 26.3558 177.064 26.7585 177.064 27.2358C177.064 27.786 176.92 28.2831 176.632 28.7273C176.347 29.1714 175.929 29.5244 175.379 29.7862C174.832 30.0481 174.168 30.179 173.385 30.179C172.656 30.179 172.025 30.0613 171.491 29.826C170.961 29.5907 170.543 29.2625 170.238 28.8416C169.937 28.4207 169.766 27.9318 169.726 27.375H170.999C171.032 27.7595 171.161 28.0777 171.387 28.3295C171.615 28.5781 171.904 28.7637 172.252 28.8864C172.603 29.0057 172.981 29.0653 173.385 29.0653C173.856 29.0653 174.279 28.9891 174.653 28.8366C175.028 28.6809 175.324 28.4654 175.543 28.1903C175.762 27.9119 175.871 27.5871 175.871 27.2159C175.871 26.8778 175.777 26.6027 175.588 26.3906C175.399 26.1785 175.15 26.0062 174.842 25.8736C174.534 25.741 174.201 25.625 173.843 25.5256L172.59 25.1676C171.794 24.9389 171.165 24.6125 170.701 24.1882C170.237 23.764 170.005 23.2088 170.005 22.5227C170.005 21.9527 170.159 21.4555 170.467 21.0312C170.779 20.6037 171.196 20.2723 171.72 20.0369C172.247 19.7983 172.835 19.679 173.485 19.679C174.141 19.679 174.724 19.7966 175.235 20.032C175.745 20.264 176.15 20.5821 176.448 20.9865C176.749 21.3909 176.909 21.8499 176.925 22.3636H175.732ZM185.751 30H182.609V19.8182H185.89C186.878 19.8182 187.723 20.022 188.426 20.4297C189.128 20.834 189.667 21.4157 190.042 22.1747C190.416 22.9304 190.603 23.8352 190.603 24.8892C190.603 25.9498 190.414 26.8629 190.037 27.6286C189.659 28.3909 189.109 28.9775 188.386 29.3885C187.663 29.7962 186.785 30 185.751 30ZM183.842 28.9062H185.671C186.513 28.9062 187.211 28.7438 187.765 28.419C188.318 28.0942 188.731 27.6319 189.002 27.032C189.274 26.4321 189.41 25.7178 189.41 24.8892C189.41 24.0672 189.276 23.3596 189.007 22.7663C188.739 22.1697 188.338 21.7124 187.804 21.3942C187.271 21.0727 186.606 20.9119 185.811 20.9119H183.842V28.9062ZM193.694 19.8182V30H192.461V19.8182H193.694ZM195.957 30V19.8182H199.397C200.192 19.8182 200.845 19.9541 201.356 20.2259C201.866 20.4943 202.244 20.8639 202.489 21.3345C202.734 21.8052 202.857 22.3404 202.857 22.9403C202.857 23.5402 202.734 24.0722 202.489 24.5362C202.244 25.0002 201.868 25.3648 201.361 25.63C200.854 25.8918 200.206 26.0227 199.417 26.0227H196.633V24.9091H199.377C199.921 24.9091 200.358 24.8295 200.689 24.6705C201.024 24.5114 201.266 24.286 201.415 23.9943C201.568 23.6993 201.644 23.348 201.644 22.9403C201.644 22.5327 201.568 22.1764 201.415 21.8714C201.263 21.5665 201.019 21.3312 200.685 21.1655C200.35 20.9964 199.907 20.9119 199.357 20.9119H197.189V30H195.957ZM200.749 25.4261L203.255 30H201.823L199.357 25.4261H200.749ZM204.702 30V19.8182H210.847V20.9119H205.935V24.3523H210.528V25.446H205.935V28.9062H210.926V30H204.702ZM214.092 19.8182V30H212.859V19.8182H214.092ZM215.797 20.9119V19.8182H223.433V20.9119H220.232V30H218.999V20.9119H215.797ZM233.293 24.9091C233.293 25.983 233.099 26.911 232.712 27.6932C232.324 28.4754 231.792 29.0786 231.116 29.5028C230.44 29.9271 229.667 30.1392 228.799 30.1392C227.931 30.1392 227.158 29.9271 226.482 29.5028C225.806 29.0786 225.274 28.4754 224.886 27.6932C224.499 26.911 224.305 25.983 224.305 24.9091C224.305 23.8352 224.499 22.9072 224.886 22.125C225.274 21.3428 225.806 20.7396 226.482 20.3153C227.158 19.8911 227.931 19.679 228.799 19.679C229.667 19.679 230.44 19.8911 231.116 20.3153C231.792 20.7396 232.324 21.3428 232.712 22.125C233.099 22.9072 233.293 23.8352 233.293 24.9091ZM232.1 24.9091C232.1 24.0275 231.953 23.2834 231.658 22.6768C231.366 22.0703 230.97 21.6113 230.47 21.2997C229.972 20.9882 229.416 20.8324 228.799 20.8324C228.183 20.8324 227.624 20.9882 227.124 21.2997C226.626 21.6113 226.23 22.0703 225.935 22.6768C225.644 23.2834 225.498 24.0275 225.498 24.9091C225.498 25.7907 225.644 26.5348 225.935 27.1413C226.23 27.7479 226.626 28.2069 227.124 28.5185C227.624 28.83 228.183 28.9858 228.799 28.9858C229.416 28.9858 229.972 28.83 230.47 28.5185C230.97 28.2069 231.366 27.7479 231.658 27.1413C231.953 26.5348 232.1 25.7907 232.1 24.9091ZM240.725 22.3636C240.665 21.8598 240.423 21.4688 239.999 21.1903C239.575 20.9119 239.054 20.7727 238.438 20.7727C237.987 20.7727 237.593 20.8456 237.255 20.9915C236.92 21.1373 236.658 21.3378 236.469 21.593C236.283 21.8482 236.191 22.1383 236.191 22.4631C236.191 22.7348 236.255 22.9685 236.385 23.1641C236.517 23.3563 236.686 23.517 236.892 23.6463C237.097 23.7723 237.313 23.8767 237.538 23.9595C237.763 24.0391 237.97 24.1037 238.159 24.1534L239.193 24.4318C239.459 24.5014 239.754 24.5975 240.078 24.7202C240.407 24.8428 240.72 25.0102 241.018 25.2223C241.32 25.4311 241.568 25.6996 241.764 26.0277C241.959 26.3558 242.057 26.7585 242.057 27.2358C242.057 27.786 241.913 28.2831 241.625 28.7273C241.34 29.1714 240.922 29.5244 240.372 29.7862C239.825 30.0481 239.16 30.179 238.378 30.179C237.649 30.179 237.018 30.0613 236.484 29.826C235.954 29.5907 235.536 29.2625 235.231 28.8416C234.93 28.4207 234.759 27.9318 234.719 27.375H235.992C236.025 27.7595 236.154 28.0777 236.38 28.3295C236.608 28.5781 236.897 28.7637 237.245 28.8864C237.596 29.0057 237.974 29.0653 238.378 29.0653C238.849 29.0653 239.271 28.9891 239.646 28.8366C240.02 28.6809 240.317 28.4654 240.536 28.1903C240.755 27.9119 240.864 27.5871 240.864 27.2159C240.864 26.8778 240.769 26.6027 240.581 26.3906C240.392 26.1785 240.143 26.0062 239.835 25.8736C239.527 25.741 239.193 25.625 238.836 25.5256L237.583 25.1676C236.787 24.9389 236.158 24.6125 235.693 24.1882C235.229 23.764 234.997 23.2088 234.997 22.5227C234.997 21.9527 235.152 21.4555 235.46 21.0312C235.771 20.6037 236.189 20.2723 236.713 20.0369C237.24 19.7983 237.828 19.679 238.478 19.679C239.134 19.679 239.717 19.7966 240.228 20.032C240.738 20.264 241.142 20.5821 241.441 20.9865C241.742 21.3909 241.901 21.8499 241.918 22.3636H240.725ZM247.602 30V19.8182H251.042C251.838 19.8182 252.491 19.9541 253.001 20.2259C253.511 20.4943 253.889 20.8639 254.134 21.3345C254.38 21.8052 254.502 22.3404 254.502 22.9403C254.502 23.5402 254.38 24.0722 254.134 24.5362C253.889 25.0002 253.513 25.3648 253.006 25.63C252.499 25.8918 251.851 26.0227 251.062 26.0227H248.278V24.9091H251.022C251.566 24.9091 252.003 24.8295 252.335 24.6705C252.669 24.5114 252.911 24.286 253.061 23.9943C253.213 23.6993 253.289 23.348 253.289 22.9403C253.289 22.5327 253.213 22.1764 253.061 21.8714C252.908 21.5665 252.665 21.3312 252.33 21.1655C251.995 20.9964 251.553 20.9119 251.002 20.9119H248.835V30H247.602ZM252.394 25.4261L254.9 30H253.468L251.002 25.4261H252.394ZM256.347 30V19.8182H262.492V20.9119H257.58V24.3523H262.174V25.446H257.58V28.9062H262.571V30H256.347ZM270.072 22.3636C270.013 21.8598 269.771 21.4688 269.346 21.1903C268.922 20.9119 268.402 20.7727 267.785 20.7727C267.335 20.7727 266.94 20.8456 266.602 20.9915C266.267 21.1373 266.005 21.3378 265.817 21.593C265.631 21.8482 265.538 22.1383 265.538 22.4631C265.538 22.7348 265.603 22.9685 265.732 23.1641C265.865 23.3563 266.034 23.517 266.239 23.6463C266.445 23.7723 266.66 23.8767 266.885 23.9595C267.111 24.0391 267.318 24.1037 267.507 24.1534L268.541 24.4318C268.806 24.5014 269.101 24.5975 269.426 24.7202C269.754 24.8428 270.067 25.0102 270.366 25.2223C270.667 25.4311 270.916 25.6996 271.111 26.0277C271.307 26.3558 271.405 26.7585 271.405 27.2358C271.405 27.786 271.26 28.2831 270.972 28.7273C270.687 29.1714 270.269 29.5244 269.719 29.7862C269.172 30.0481 268.508 30.179 267.726 30.179C266.996 30.179 266.365 30.0613 265.831 29.826C265.301 29.5907 264.884 29.2625 264.579 28.8416C264.277 28.4207 264.106 27.9318 264.067 27.375H265.339C265.372 27.7595 265.502 28.0777 265.727 28.3295C265.956 28.5781 266.244 28.7637 266.592 28.8864C266.943 29.0057 267.321 29.0653 267.726 29.0653C268.196 29.0653 268.619 28.9891 268.993 28.8366C269.368 28.6809 269.665 28.4654 269.883 28.1903C270.102 27.9119 270.211 27.5871 270.211 27.2159C270.211 26.8778 270.117 26.6027 269.928 26.3906C269.739 26.1785 269.491 26.0062 269.182 25.8736C268.874 25.741 268.541 25.625 268.183 25.5256L266.93 25.1676C266.135 24.9389 265.505 24.6125 265.041 24.1882C264.577 23.764 264.345 23.2088 264.345 22.5227C264.345 21.9527 264.499 21.4555 264.807 21.0312C265.119 20.6037 265.536 20.2723 266.06 20.0369C266.587 19.7983 267.175 19.679 267.825 19.679C268.481 19.679 269.065 19.7966 269.575 20.032C270.085 20.264 270.49 20.5821 270.788 20.9865C271.09 21.3909 271.249 21.8499 271.265 22.3636H270.072ZM273.222 30V19.8182H279.367V20.9119H274.455V24.3523H279.048V25.446H274.455V28.9062H279.446V30H273.222ZM281.379 30V19.8182H284.819C285.615 19.8182 286.268 19.9541 286.778 20.2259C287.289 20.4943 287.666 20.8639 287.912 21.3345C288.157 21.8052 288.28 22.3404 288.28 22.9403C288.28 23.5402 288.157 24.0722 287.912 24.5362C287.666 25.0002 287.29 25.3648 286.783 25.63C286.276 25.8918 285.628 26.0227 284.839 26.0227H282.055V24.9091H284.799C285.343 24.9091 285.78 24.8295 286.112 24.6705C286.447 24.5114 286.689 24.286 286.838 23.9943C286.99 23.6993 287.066 23.348 287.066 22.9403C287.066 22.5327 286.99 22.1764 286.838 21.8714C286.685 21.5665 286.442 21.3312 286.107 21.1655C285.772 20.9964 285.33 20.9119 284.78 20.9119H282.612V30H281.379ZM286.172 25.4261L288.677 30H287.245L284.78 25.4261H286.172ZM290.309 19.8182L293.332 28.3892H293.451L296.474 19.8182H297.767L294.028 30H292.755L289.017 19.8182H290.309ZM298.685 30H297.393L301.131 19.8182H302.404L306.143 30H304.85L301.807 21.429H301.728L298.685 30ZM299.162 26.0227H304.373V27.1165H299.162V26.0227ZM310.661 30H307.519V19.8182H310.8C311.787 19.8182 312.633 20.022 313.335 20.4297C314.038 20.834 314.577 21.4157 314.951 22.1747C315.326 22.9304 315.513 23.8352 315.513 24.8892C315.513 25.9498 315.324 26.8629 314.946 27.6286C314.568 28.3909 314.018 28.9775 313.295 29.3885C312.573 29.7962 311.695 30 310.661 30ZM308.751 28.9062H310.581C311.423 28.9062 312.121 28.7438 312.674 28.419C313.228 28.0942 313.64 27.6319 313.912 27.032C314.184 26.4321 314.32 25.7178 314.32 24.8892C314.32 24.0672 314.185 23.3596 313.917 22.7663C313.648 22.1697 313.247 21.7124 312.714 21.3942C312.18 21.0727 311.516 20.9119 310.72 20.9119H308.751V28.9062ZM325.962 24.9091C325.962 25.983 325.768 26.911 325.38 27.6932C324.992 28.4754 324.461 29.0786 323.784 29.5028C323.108 29.9271 322.336 30.1392 321.468 30.1392C320.599 30.1392 319.827 29.9271 319.151 29.5028C318.475 29.0786 317.943 28.4754 317.555 27.6932C317.167 26.911 316.973 25.983 316.973 24.9091C316.973 23.8352 317.167 22.9072 317.555 22.125C317.943 21.3428 318.475 20.7396 319.151 20.3153C319.827 19.8911 320.599 19.679 321.468 19.679C322.336 19.679 323.108 19.8911 323.784 20.3153C324.461 20.7396 324.992 21.3428 325.38 22.125C325.768 22.9072 325.962 23.8352 325.962 24.9091ZM324.769 24.9091C324.769 24.0275 324.621 23.2834 324.326 22.6768C324.035 22.0703 323.639 21.6113 323.138 21.2997C322.641 20.9882 322.084 20.8324 321.468 20.8324C320.851 20.8324 320.293 20.9882 319.792 21.2997C319.295 21.6113 318.899 22.0703 318.604 22.6768C318.312 23.2834 318.166 24.0275 318.166 24.9091C318.166 25.7907 318.312 26.5348 318.604 27.1413C318.899 27.7479 319.295 28.2069 319.792 28.5185C320.293 28.83 320.851 28.9858 321.468 28.9858C322.084 28.9858 322.641 28.83 323.138 28.5185C323.639 28.2069 324.035 27.7479 324.326 27.1413C324.621 26.5348 324.769 25.7907 324.769 24.9091ZM333.393 22.3636C333.334 21.8598 333.092 21.4688 332.667 21.1903C332.243 20.9119 331.723 20.7727 331.106 20.7727C330.656 20.7727 330.261 20.8456 329.923 20.9915C329.588 21.1373 329.326 21.3378 329.138 21.593C328.952 21.8482 328.859 22.1383 328.859 22.4631C328.859 22.7348 328.924 22.9685 329.053 23.1641C329.186 23.3563 329.355 23.517 329.56 23.6463C329.766 23.7723 329.981 23.8767 330.206 23.9595C330.432 24.0391 330.639 24.1037 330.828 24.1534L331.862 24.4318C332.127 24.5014 332.422 24.5975 332.747 24.7202C333.075 24.8428 333.388 25.0102 333.687 25.2223C333.988 25.4311 334.237 25.6996 334.432 26.0277C334.628 26.3558 334.726 26.7585 334.726 27.2358C334.726 27.786 334.581 28.2831 334.293 28.7273C334.008 29.1714 333.59 29.5244 333.04 29.7862C332.493 30.0481 331.829 30.179 331.047 30.179C330.317 30.179 329.686 30.0613 329.152 29.826C328.622 29.5907 328.205 29.2625 327.9 28.8416C327.598 28.4207 327.427 27.9318 327.388 27.375H328.66C328.693 27.7595 328.823 28.0777 329.048 28.3295C329.277 28.5781 329.565 28.7637 329.913 28.8864C330.264 29.0057 330.642 29.0653 331.047 29.0653C331.517 29.0653 331.94 28.9891 332.314 28.8366C332.689 28.6809 332.986 28.4654 333.204 28.1903C333.423 27.9119 333.532 27.5871 333.532 27.2159C333.532 26.8778 333.438 26.6027 333.249 26.3906C333.06 26.1785 332.812 26.0062 332.503 25.8736C332.195 25.741 331.862 25.625 331.504 25.5256L330.251 25.1676C329.456 24.9389 328.826 24.6125 328.362 24.1882C327.898 23.764 327.666 23.2088 327.666 22.5227C327.666 21.9527 327.82 21.4555 328.128 21.0312C328.44 20.6037 328.857 20.2723 329.381 20.0369C329.908 19.7983 330.496 19.679 331.146 19.679C331.802 19.679 332.386 19.7966 332.896 20.032C333.406 20.264 333.811 20.5821 334.109 20.9865C334.411 21.3909 334.57 21.8499 334.586 22.3636H333.393Z" fill="white"/>
<path d="M1168.96 30V19.8182H1175.07V20.9119H1170.19V24.3523H1174.61V25.446H1170.19V30H1168.96ZM1179.45 30.1591C1178.71 30.1591 1178.08 29.9967 1177.55 29.6719C1177.01 29.3438 1176.61 28.8864 1176.32 28.2997C1176.03 27.7098 1175.89 27.0237 1175.89 26.2415C1175.89 25.4593 1176.03 24.7699 1176.32 24.1733C1176.61 23.5734 1177.01 23.1061 1177.52 22.7713C1178.04 22.4332 1178.64 22.2642 1179.33 22.2642C1179.73 22.2642 1180.12 22.3305 1180.51 22.4631C1180.9 22.5956 1181.25 22.8111 1181.57 23.1094C1181.89 23.4044 1182.14 23.7955 1182.33 24.2827C1182.52 24.7699 1182.61 25.3698 1182.61 26.0824V26.5795H1176.72V25.5653H1181.42C1181.42 25.1345 1181.33 24.75 1181.16 24.4119C1180.99 24.0739 1180.75 23.8071 1180.43 23.6115C1180.12 23.416 1179.75 23.3182 1179.33 23.3182C1178.86 23.3182 1178.46 23.4342 1178.12 23.6662C1177.78 23.8949 1177.52 24.1932 1177.34 24.5611C1177.15 24.929 1177.06 25.3234 1177.06 25.7443V26.4205C1177.06 26.9972 1177.16 27.486 1177.36 27.8871C1177.56 28.2848 1177.84 28.5881 1178.2 28.7969C1178.56 29.0024 1178.98 29.1051 1179.45 29.1051C1179.76 29.1051 1180.04 29.062 1180.28 28.9759C1180.54 28.8864 1180.75 28.7538 1180.94 28.5781C1181.12 28.3991 1181.26 28.1771 1181.36 27.9119L1182.49 28.2301C1182.37 28.6146 1182.17 28.9527 1181.89 29.2443C1181.61 29.5327 1181.26 29.758 1180.85 29.9205C1180.43 30.0795 1179.97 30.1591 1179.45 30.1591ZM1184.19 30V22.3636H1185.36V30H1184.19ZM1184.78 21.0909C1184.55 21.0909 1184.36 21.013 1184.19 20.8572C1184.03 20.7015 1183.95 20.5142 1183.95 20.2955C1183.95 20.0767 1184.03 19.8894 1184.19 19.7337C1184.36 19.5779 1184.55 19.5 1184.78 19.5C1185.01 19.5 1185.21 19.5779 1185.37 19.7337C1185.54 19.8894 1185.62 20.0767 1185.62 20.2955C1185.62 20.5142 1185.54 20.7015 1185.37 20.8572C1185.21 21.013 1185.01 21.0909 1184.78 21.0909ZM1190.62 22.3636V23.358H1186.66V22.3636H1190.62ZM1187.82 20.5341H1188.99V27.8125C1188.99 28.1439 1189.04 28.3925 1189.13 28.5582C1189.23 28.7206 1189.36 28.83 1189.51 28.8864C1189.67 28.9394 1189.83 28.9659 1190 28.9659C1190.13 28.9659 1190.24 28.9593 1190.32 28.946C1190.4 28.9295 1190.47 28.9162 1190.52 28.9062L1190.76 29.9602C1190.68 29.9901 1190.57 30.0199 1190.43 30.0497C1190.28 30.0829 1190.1 30.0994 1189.88 30.0994C1189.55 30.0994 1189.23 30.0282 1188.91 29.8857C1188.59 29.7431 1188.33 29.526 1188.12 29.2344C1187.92 28.9427 1187.82 28.5748 1187.82 28.1307V20.5341ZM1195.19 30.1591C1194.51 30.1591 1193.9 29.995 1193.38 29.6669C1192.86 29.3388 1192.46 28.8797 1192.17 28.2898C1191.88 27.6998 1191.73 27.0104 1191.73 26.2216C1191.73 25.4261 1191.88 24.7318 1192.17 24.1385C1192.46 23.5452 1192.86 23.0845 1193.38 22.7564C1193.9 22.4283 1194.51 22.2642 1195.19 22.2642C1195.88 22.2642 1196.49 22.4283 1197 22.7564C1197.52 23.0845 1197.93 23.5452 1198.22 24.1385C1198.51 24.7318 1198.65 25.4261 1198.65 26.2216C1198.65 27.0104 1198.51 27.6998 1198.22 28.2898C1197.93 28.8797 1197.52 29.3388 1197 29.6669C1196.49 29.995 1195.88 30.1591 1195.19 30.1591ZM1195.19 29.1051C1195.72 29.1051 1196.15 28.9709 1196.49 28.7024C1196.83 28.4339 1197.08 28.081 1197.24 27.6435C1197.4 27.206 1197.48 26.732 1197.48 26.2216C1197.48 25.7112 1197.4 25.2356 1197.24 24.7947C1197.08 24.3539 1196.83 23.9976 1196.49 23.7259C1196.15 23.4541 1195.72 23.3182 1195.19 23.3182C1194.67 23.3182 1194.24 23.4541 1193.9 23.7259C1193.56 23.9976 1193.31 24.3539 1193.15 24.7947C1192.99 25.2356 1192.91 25.7112 1192.91 26.2216C1192.91 26.732 1192.99 27.206 1193.15 27.6435C1193.31 28.081 1193.56 28.4339 1193.9 28.7024C1194.24 28.9709 1194.67 29.1051 1195.19 29.1051ZM1207.07 30.1591C1206.35 30.1591 1205.73 29.9901 1205.22 29.652C1204.7 29.3139 1204.3 28.8482 1204.02 28.255C1203.74 27.6617 1203.61 26.9839 1203.61 26.2216C1203.61 25.446 1203.75 24.7616 1204.03 24.1683C1204.32 23.5717 1204.72 23.1061 1205.24 22.7713C1205.75 22.4332 1206.36 22.2642 1207.05 22.2642C1207.58 22.2642 1208.07 22.3636 1208.5 22.5625C1208.93 22.7614 1209.28 23.0398 1209.56 23.3977C1209.83 23.7557 1210 24.1733 1210.07 24.6506H1208.9C1208.81 24.3026 1208.61 23.9943 1208.3 23.7259C1207.99 23.4541 1207.58 23.3182 1207.07 23.3182C1206.61 23.3182 1206.21 23.4375 1205.86 23.6761C1205.52 23.9115 1205.25 24.2446 1205.06 24.6754C1204.87 25.103 1204.78 25.6051 1204.78 26.1818C1204.78 26.7718 1204.87 27.2855 1205.06 27.723C1205.25 28.1605 1205.51 28.5002 1205.85 28.7422C1206.2 28.9841 1206.6 29.1051 1207.07 29.1051C1207.37 29.1051 1207.65 29.0521 1207.9 28.946C1208.14 28.84 1208.35 28.6875 1208.53 28.4886C1208.7 28.2898 1208.82 28.0511 1208.9 27.7727H1210.07C1210 28.2235 1209.84 28.6295 1209.58 28.9908C1209.32 29.3487 1208.97 29.6338 1208.55 29.8459C1208.12 30.0547 1207.63 30.1591 1207.07 30.1591ZM1214.68 30.1591C1213.99 30.1591 1213.38 29.995 1212.86 29.6669C1212.34 29.3388 1211.94 28.8797 1211.65 28.2898C1211.36 27.6998 1211.22 27.0104 1211.22 26.2216C1211.22 25.4261 1211.36 24.7318 1211.65 24.1385C1211.94 23.5452 1212.34 23.0845 1212.86 22.7564C1213.38 22.4283 1213.99 22.2642 1214.68 22.2642C1215.37 22.2642 1215.97 22.4283 1216.49 22.7564C1217.01 23.0845 1217.41 23.5452 1217.7 24.1385C1217.99 24.7318 1218.14 25.4261 1218.14 26.2216C1218.14 27.0104 1217.99 27.6998 1217.7 28.2898C1217.41 28.8797 1217.01 29.3388 1216.49 29.6669C1215.97 29.995 1215.37 30.1591 1214.68 30.1591ZM1214.68 29.1051C1215.2 29.1051 1215.63 28.9709 1215.97 28.7024C1216.31 28.4339 1216.56 28.081 1216.72 27.6435C1216.88 27.206 1216.96 26.732 1216.96 26.2216C1216.96 25.7112 1216.88 25.2356 1216.72 24.7947C1216.56 24.3539 1216.31 23.9976 1215.97 23.7259C1215.63 23.4541 1215.2 23.3182 1214.68 23.3182C1214.15 23.3182 1213.72 23.4541 1213.38 23.7259C1213.05 23.9976 1212.79 24.3539 1212.63 24.7947C1212.47 25.2356 1212.39 25.7112 1212.39 26.2216C1212.39 26.732 1212.47 27.206 1212.63 27.6435C1212.79 28.081 1213.05 28.4339 1213.38 28.7024C1213.72 28.9709 1214.15 29.1051 1214.68 29.1051ZM1219.72 30V22.3636H1220.85V23.5568H1220.95C1221.11 23.1491 1221.37 22.8326 1221.72 22.6072C1222.08 22.3786 1222.5 22.2642 1223 22.2642C1223.5 22.2642 1223.92 22.3786 1224.26 22.6072C1224.59 22.8326 1224.86 23.1491 1225.05 23.5568H1225.13C1225.32 23.1624 1225.62 22.8492 1226.01 22.6172C1226.4 22.3819 1226.87 22.2642 1227.41 22.2642C1228.1 22.2642 1228.65 22.478 1229.09 22.9055C1229.52 23.3298 1229.74 23.991 1229.74 24.8892V30H1228.57V24.8892C1228.57 24.3258 1228.41 23.9231 1228.1 23.6811C1227.8 23.4392 1227.43 23.3182 1227.02 23.3182C1226.48 23.3182 1226.06 23.4806 1225.77 23.8054C1225.47 24.1269 1225.33 24.5346 1225.33 25.0284V30H1224.13V24.7699C1224.13 24.3357 1223.99 23.986 1223.71 23.7209C1223.43 23.4524 1223.06 23.3182 1222.62 23.3182C1222.32 23.3182 1222.03 23.3994 1221.77 23.5618C1221.5 23.7242 1221.29 23.9496 1221.13 24.2379C1220.97 24.523 1220.89 24.8527 1220.89 25.2273V30H1219.72ZM1241.49 30.1591L1236.38 25.0483C1235.97 24.6406 1235.7 24.1667 1235.56 23.6264C1235.43 23.0862 1235.43 22.5492 1235.57 22.0156C1235.7 21.4787 1235.97 21.0114 1236.38 20.6136C1236.79 20.206 1237.26 19.9358 1237.79 19.8033C1238.33 19.6674 1238.86 19.6674 1239.39 19.8033C1239.92 19.9392 1240.4 20.2093 1240.81 20.6136L1241.49 21.2699L1242.16 20.6136C1242.58 20.2093 1243.06 19.9392 1243.59 19.8033C1244.12 19.6674 1244.65 19.6674 1245.18 19.8033C1245.71 19.9358 1246.18 20.206 1246.6 20.6136C1247 21.0114 1247.27 21.4787 1247.41 22.0156C1247.54 22.5492 1247.54 23.0862 1247.41 23.6264C1247.28 24.1667 1247.01 24.6406 1246.6 25.0483L1241.49 30.1591ZM1253.81 30H1252.52L1256.26 19.8182H1257.53L1261.27 30H1259.98L1256.93 21.429H1256.85L1253.81 30ZM1254.29 26.0227H1259.5V27.1165H1254.29V26.0227ZM1267.3 26.8778V22.3636H1268.47V30H1267.3V28.7074H1267.22C1267.04 29.0952 1266.76 29.425 1266.38 29.6967C1266.01 29.9652 1265.53 30.0994 1264.95 30.0994C1264.47 30.0994 1264.05 29.995 1263.68 29.7862C1263.31 29.5741 1263.02 29.2559 1262.8 28.8317C1262.59 28.4041 1262.49 27.8655 1262.49 27.2159V22.3636H1263.66V27.1364C1263.66 27.6932 1263.81 28.1373 1264.13 28.4688C1264.44 28.8002 1264.84 28.9659 1265.33 28.9659C1265.62 28.9659 1265.92 28.8913 1266.22 28.7422C1266.52 28.593 1266.78 28.3643 1266.98 28.0561C1267.19 27.7479 1267.3 27.3551 1267.3 26.8778ZM1273.51 30.1591C1272.8 30.1591 1272.18 29.9901 1271.66 29.652C1271.15 29.3139 1270.75 28.8482 1270.47 28.255C1270.19 27.6617 1270.05 26.9839 1270.05 26.2216C1270.05 25.446 1270.19 24.7616 1270.48 24.1683C1270.77 23.5717 1271.17 23.1061 1271.68 22.7713C1272.2 22.4332 1272.8 22.2642 1273.49 22.2642C1274.03 22.2642 1274.51 22.3636 1274.94 22.5625C1275.38 22.7614 1275.73 23.0398 1276 23.3977C1276.28 23.7557 1276.45 24.1733 1276.52 24.6506H1275.34C1275.25 24.3026 1275.05 23.9943 1274.75 23.7259C1274.44 23.4541 1274.03 23.3182 1273.51 23.3182C1273.06 23.3182 1272.65 23.4375 1272.31 23.6761C1271.97 23.9115 1271.7 24.2446 1271.51 24.6754C1271.32 25.103 1271.23 25.6051 1271.23 26.1818C1271.23 26.7718 1271.32 27.2855 1271.5 27.723C1271.69 28.1605 1271.96 28.5002 1272.3 28.7422C1272.64 28.9841 1273.05 29.1051 1273.51 29.1051C1273.82 29.1051 1274.09 29.0521 1274.34 28.946C1274.59 28.84 1274.8 28.6875 1274.97 28.4886C1275.15 28.2898 1275.27 28.0511 1275.34 27.7727H1276.52C1276.45 28.2235 1276.28 28.6295 1276.02 28.9908C1275.76 29.3487 1275.42 29.6338 1274.99 29.8459C1274.57 30.0547 1274.08 30.1591 1273.51 30.1591ZM1279.19 19.8182V30H1278.02V19.8182H1279.19ZM1283.38 30.179C1282.9 30.179 1282.46 30.0878 1282.06 29.9055C1281.67 29.7199 1281.35 29.4531 1281.12 29.1051C1280.89 28.7538 1280.77 28.3295 1280.77 27.8324C1280.77 27.3949 1280.86 27.0402 1281.03 26.7685C1281.21 26.4934 1281.44 26.2779 1281.72 26.1222C1282.01 25.9664 1282.33 25.8504 1282.68 25.7741C1283.03 25.6946 1283.38 25.6316 1283.74 25.5852C1284.2 25.5256 1284.58 25.4808 1284.87 25.451C1285.16 25.4179 1285.37 25.3632 1285.5 25.2869C1285.64 25.2107 1285.71 25.0781 1285.71 24.8892V24.8494C1285.71 24.3589 1285.57 23.9777 1285.3 23.706C1285.04 23.4342 1284.64 23.2983 1284.1 23.2983C1283.54 23.2983 1283.1 23.4209 1282.78 23.6662C1282.46 23.9115 1282.24 24.1733 1282.11 24.4517L1280.99 24.054C1281.19 23.59 1281.46 23.2287 1281.79 22.9702C1282.12 22.7083 1282.49 22.526 1282.88 22.4233C1283.28 22.3172 1283.67 22.2642 1284.06 22.2642C1284.3 22.2642 1284.58 22.294 1284.9 22.3537C1285.22 22.41 1285.53 22.5277 1285.83 22.7067C1286.13 22.8857 1286.38 23.1558 1286.58 23.517C1286.78 23.8783 1286.88 24.3622 1286.88 24.9688V30H1285.71V28.9659H1285.65C1285.57 29.1316 1285.43 29.3089 1285.25 29.4979C1285.06 29.6868 1284.82 29.8475 1284.51 29.9801C1284.2 30.1127 1283.82 30.179 1283.38 30.179ZM1283.56 29.125C1284.02 29.125 1284.41 29.0339 1284.73 28.8516C1285.05 28.6693 1285.3 28.4339 1285.46 28.1456C1285.62 27.8572 1285.71 27.554 1285.71 27.2358V26.1619C1285.66 26.2216 1285.55 26.2763 1285.38 26.326C1285.21 26.3724 1285.02 26.4138 1284.8 26.4503C1284.59 26.4834 1284.38 26.5133 1284.17 26.5398C1283.97 26.563 1283.8 26.5829 1283.68 26.5994C1283.37 26.6392 1283.09 26.7038 1282.82 26.7933C1282.56 26.8795 1282.35 27.0104 1282.19 27.1861C1282.03 27.3584 1281.95 27.5937 1281.95 27.892C1281.95 28.2997 1282.1 28.608 1282.4 28.8168C1282.71 29.0223 1283.09 29.125 1283.56 29.125ZM1289.98 25.4062V30H1288.81V22.3636H1289.94V23.5568H1290.04C1290.22 23.169 1290.5 22.8575 1290.86 22.6222C1291.22 22.3835 1291.69 22.2642 1292.27 22.2642C1292.79 22.2642 1293.24 22.3703 1293.63 22.5824C1294.02 22.7912 1294.32 23.1094 1294.53 23.5369C1294.75 23.9612 1294.86 24.4981 1294.86 25.1477V30H1293.68V25.2273C1293.68 24.6274 1293.53 24.16 1293.22 23.8253C1292.9 23.4872 1292.48 23.3182 1291.93 23.3182C1291.56 23.3182 1291.22 23.3994 1290.93 23.5618C1290.64 23.7242 1290.41 23.9612 1290.24 24.2727C1290.07 24.5843 1289.98 24.9621 1289.98 25.4062ZM1303.82 30H1300.68V19.8182H1303.96C1304.95 19.8182 1305.79 20.022 1306.49 20.4297C1307.2 20.834 1307.74 21.4157 1308.11 22.1747C1308.48 22.9304 1308.67 23.8352 1308.67 24.8892C1308.67 25.9498 1308.48 26.8629 1308.11 27.6286C1307.73 28.3909 1307.18 28.9775 1306.45 29.3885C1305.73 29.7962 1304.85 30 1303.82 30ZM1301.91 28.9062H1303.74C1304.58 28.9062 1305.28 28.7438 1305.83 28.419C1306.39 28.0942 1306.8 27.6319 1307.07 27.032C1307.34 26.4321 1307.48 25.7178 1307.48 24.8892C1307.48 24.0672 1307.34 23.3596 1307.08 22.7663C1306.81 22.1697 1306.41 21.7124 1305.87 21.3942C1305.34 21.0727 1304.67 20.9119 1303.88 20.9119H1301.91V28.9062ZM1313.57 30.1591C1312.84 30.1591 1312.2 29.9967 1311.67 29.6719C1311.14 29.3438 1310.73 28.8864 1310.44 28.2997C1310.16 27.7098 1310.01 27.0237 1310.01 26.2415C1310.01 25.4593 1310.16 24.7699 1310.44 24.1733C1310.73 23.5734 1311.13 23.1061 1311.64 22.7713C1312.16 22.4332 1312.76 22.2642 1313.45 22.2642C1313.85 22.2642 1314.24 22.3305 1314.63 22.4631C1315.02 22.5956 1315.37 22.8111 1315.69 23.1094C1316.01 23.4044 1316.26 23.7955 1316.45 24.2827C1316.64 24.7699 1316.73 25.3698 1316.73 26.0824V26.5795H1310.85V25.5653H1315.54C1315.54 25.1345 1315.46 24.75 1315.28 24.4119C1315.11 24.0739 1314.87 23.8071 1314.56 23.6115C1314.25 23.416 1313.88 23.3182 1313.45 23.3182C1312.99 23.3182 1312.58 23.4342 1312.24 23.6662C1311.9 23.8949 1311.64 24.1932 1311.46 24.5611C1311.28 24.929 1311.19 25.3234 1311.19 25.7443V26.4205C1311.19 26.9972 1311.29 27.486 1311.48 27.8871C1311.69 28.2848 1311.97 28.5881 1312.32 28.7969C1312.68 29.0024 1313.1 29.1051 1313.57 29.1051C1313.88 29.1051 1314.16 29.062 1314.41 28.9759C1314.66 28.8864 1314.88 28.7538 1315.06 28.5781C1315.24 28.3991 1315.38 28.1771 1315.48 27.9119L1316.62 28.2301C1316.5 28.6146 1316.3 28.9527 1316.01 29.2443C1315.73 29.5327 1315.38 29.758 1314.97 29.9205C1314.56 30.0795 1314.09 30.1591 1313.57 30.1591ZM1323.72 24.0739L1322.66 24.3722C1322.6 24.1965 1322.5 24.0258 1322.37 23.8601C1322.25 23.6911 1322.07 23.5518 1321.85 23.4425C1321.64 23.3331 1321.36 23.2784 1321.01 23.2784C1320.55 23.2784 1320.16 23.3861 1319.85 23.6016C1319.54 23.8137 1319.38 24.0838 1319.38 24.4119C1319.38 24.7036 1319.49 24.9339 1319.7 25.103C1319.91 25.272 1320.24 25.4129 1320.7 25.5256L1321.83 25.804C1322.51 25.9697 1323.02 26.2232 1323.36 26.5646C1323.69 26.9027 1323.86 27.3385 1323.86 27.8722C1323.86 28.3097 1323.73 28.7008 1323.48 29.0455C1323.23 29.3902 1322.88 29.6619 1322.44 29.8608C1321.99 30.0597 1321.47 30.1591 1320.87 30.1591C1320.1 30.1591 1319.45 29.9901 1318.94 29.652C1318.43 29.3139 1318.11 28.8201 1317.97 28.1705L1319.08 27.892C1319.19 28.303 1319.39 28.6113 1319.69 28.8168C1319.98 29.0223 1320.37 29.125 1320.85 29.125C1321.4 29.125 1321.84 29.009 1322.16 28.777C1322.48 28.5417 1322.64 28.2599 1322.64 27.9318C1322.64 27.6667 1322.55 27.4446 1322.37 27.2656C1322.18 27.0833 1321.9 26.9474 1321.51 26.858L1320.24 26.5597C1319.54 26.3939 1319.03 26.1371 1318.7 25.7891C1318.37 25.4377 1318.21 24.9986 1318.21 24.4716C1318.21 24.0407 1318.33 23.6596 1318.57 23.3281C1318.82 22.9967 1319.15 22.7365 1319.57 22.5476C1320 22.3587 1320.48 22.2642 1321.01 22.2642C1321.77 22.2642 1322.36 22.4299 1322.79 22.7614C1323.23 23.0928 1323.54 23.5303 1323.72 24.0739ZM1325.41 30V22.3636H1326.59V30H1325.41ZM1326.01 21.0909C1325.78 21.0909 1325.58 21.013 1325.42 20.8572C1325.26 20.7015 1325.18 20.5142 1325.18 20.2955C1325.18 20.0767 1325.26 19.8894 1325.42 19.7337C1325.58 19.5779 1325.78 19.5 1326.01 19.5C1326.24 19.5 1326.43 19.5779 1326.6 19.7337C1326.76 19.8894 1326.85 20.0767 1326.85 20.2955C1326.85 20.5142 1326.76 20.7015 1326.6 20.8572C1326.43 21.013 1326.24 21.0909 1326.01 21.0909ZM1331.61 33.0227C1331.04 33.0227 1330.55 32.9498 1330.15 32.804C1329.74 32.6615 1329.4 32.4725 1329.13 32.2372C1328.86 32.0052 1328.65 31.7566 1328.49 31.4915L1329.42 30.8352C1329.53 30.9744 1329.66 31.1335 1329.82 31.3125C1329.99 31.4948 1330.21 31.6522 1330.49 31.7848C1330.77 31.9207 1331.15 31.9886 1331.61 31.9886C1332.22 31.9886 1332.73 31.8395 1333.13 31.5412C1333.54 31.2429 1333.74 30.7756 1333.74 30.1392V28.5881H1333.64C1333.55 28.7273 1333.43 28.8996 1333.27 29.1051C1333.11 29.3073 1332.89 29.4879 1332.59 29.647C1332.3 29.8028 1331.91 29.8807 1331.41 29.8807C1330.79 29.8807 1330.24 29.7348 1329.75 29.4432C1329.26 29.1515 1328.88 28.7273 1328.59 28.1705C1328.31 27.6136 1328.17 26.9375 1328.17 26.142C1328.17 25.3598 1328.31 24.6787 1328.58 24.0987C1328.86 23.5154 1329.24 23.0646 1329.73 22.7464C1330.22 22.425 1330.79 22.2642 1331.43 22.2642C1331.93 22.2642 1332.32 22.3471 1332.61 22.5128C1332.91 22.6752 1333.13 22.8608 1333.29 23.0696C1333.45 23.2751 1333.57 23.4441 1333.66 23.5767H1333.78V22.3636H1334.91V30.2188C1334.91 30.875 1334.76 31.4086 1334.46 31.8196C1334.17 32.2339 1333.77 32.5372 1333.27 32.7294C1332.77 32.925 1332.22 33.0227 1331.61 33.0227ZM1331.57 28.8267C1332.04 28.8267 1332.44 28.719 1332.76 28.5036C1333.09 28.2881 1333.33 27.9782 1333.5 27.5739C1333.67 27.1695 1333.76 26.6856 1333.76 26.1222C1333.76 25.572 1333.67 25.0864 1333.51 24.6655C1333.34 24.2446 1333.1 23.9148 1332.77 23.6761C1332.45 23.4375 1332.05 23.3182 1331.57 23.3182C1331.07 23.3182 1330.66 23.4441 1330.33 23.696C1330 23.9479 1329.75 24.286 1329.59 24.7102C1329.42 25.1345 1329.34 25.6051 1329.34 26.1222C1329.34 26.6525 1329.42 27.1214 1329.59 27.5291C1329.76 27.9335 1330.01 28.2517 1330.34 28.4837C1330.67 28.7124 1331.08 28.8267 1331.57 28.8267ZM1338.02 25.4062V30H1336.85V22.3636H1337.98V23.5568H1338.08C1338.26 23.169 1338.53 22.8575 1338.9 22.6222C1339.26 22.3835 1339.73 22.2642 1340.31 22.2642C1340.82 22.2642 1341.28 22.3703 1341.66 22.5824C1342.05 22.7912 1342.35 23.1094 1342.57 23.5369C1342.79 23.9612 1342.89 24.4981 1342.89 25.1477V30H1341.72V25.2273C1341.72 24.6274 1341.56 24.16 1341.25 23.8253C1340.94 23.4872 1340.51 23.3182 1339.97 23.3182C1339.59 23.3182 1339.26 23.3994 1338.97 23.5618C1338.67 23.7242 1338.44 23.9612 1338.27 24.2727C1338.11 24.5843 1338.02 24.9621 1338.02 25.4062Z" fill="white"/>
</svg>
