<svg width="1345" height="45" viewBox="0 0 1345 45" fill="none" xmlns="http://www.w3.org/2000/svg">
<path opacity="0.2" d="M36 6L62.5 32.5L245 32.5L271.5 5.99998L1105 5.99998L1131.5 32.5" stroke="white"/>
<path opacity="0.2" d="M1175 32.5H1225L1250.5 7L1344 7" stroke="white"/>
<g opacity="0.2">
<circle cx="1141.5" cy="33" r="3" fill="white"/>
<circle cx="1153.5" cy="33" r="3" fill="white"/>
<circle cx="1165.5" cy="33" r="3" fill="white"/>
</g>
<g opacity="0.2">
<circle cx="3" cy="6" r="3" fill="white"/>
<circle cx="15" cy="6" r="3" fill="white"/>
<circle cx="27" cy="6" r="3" fill="white"/>
</g>
<path opacity="0.2" d="M279 16.5V16H278.793L278.646 16.1464L279 16.5ZM1090.83 16.5C1090.83 17.9728 1092.03 19.1667 1093.5 19.1667C1094.97 19.1667 1096.17 17.9728 1096.17 16.5C1096.17 15.0272 1094.97 13.8333 1093.5 13.8333C1092.03 13.8333 1090.83 15.0272 1090.83 16.5ZM253.5 42V42.5H253.707L253.854 42.3536L253.5 42ZM235.333 42C235.333 43.4728 236.527 44.6667 238 44.6667C239.473 44.6667 240.667 43.4728 240.667 42C240.667 40.5272 239.473 39.3333 238 39.3333C236.527 39.3333 235.333 40.5272 235.333 42ZM279 17H1093.5V16H279V17ZM278.646 16.1464L253.146 41.6464L253.854 42.3536L279.354 16.8536L278.646 16.1464ZM253.5 41.5H238V42.5H253.5V41.5Z" fill="white"/>
<path opacity="0.2" d="M40.3333 3.5C40.3333 4.97276 41.5272 6.16667 43 6.16667C44.4728 6.16667 45.6667 4.97276 45.6667 3.5C45.6667 2.02724 44.4728 0.833333 43 0.833333C41.5272 0.833333 40.3333 2.02724 40.3333 3.5ZM65 25.5L64.6464 25.8536L64.7929 26H65V25.5ZM90.3333 25.5C90.3333 26.9728 91.5272 28.1667 93 28.1667C94.4728 28.1667 95.6667 26.9728 95.6667 25.5C95.6667 24.0272 94.4728 22.8333 93 22.8333C91.5272 22.8333 90.3333 24.0272 90.3333 25.5ZM42.6464 3.85355L64.6464 25.8536L65.3536 25.1464L43.3536 3.14645L42.6464 3.85355ZM65 26H93V25H65V26Z" fill="white"/>
<path opacity="0.2" d="M1338.83 14.5C1338.83 15.9728 1340.03 17.1667 1341.5 17.1667C1342.97 17.1667 1344.17 15.9728 1344.17 14.5C1344.17 13.0272 1342.97 11.8333 1341.5 11.8333C1340.03 11.8333 1338.83 13.0272 1338.83 14.5ZM1255.5 14.5V14H1255.29L1255.15 14.1464L1255.5 14.5ZM1225.33 42C1225.33 43.4728 1226.53 44.6667 1228 44.6667C1229.47 44.6667 1230.67 43.4728 1230.67 42C1230.67 40.5272 1229.47 39.3333 1228 39.3333C1226.53 39.3333 1225.33 40.5272 1225.33 42ZM1341.5 14H1255.5V15H1341.5V14ZM1255.15 14.1464L1227.65 41.6464L1228.35 42.3536L1255.85 14.8536L1255.15 14.1464Z" fill="#6E7379"/>
</svg>
