<svg width="120" height="32" viewBox="0 0 120 32" fill="none" xmlns="http://www.w3.org/2000/svg">
<path d="M84.7184 25.5994C80.2409 25.5994 78.325 23.0439 78.325 18.9908V13.0349C78.325 8.95493 80.2409 6.39941 84.7184 6.39941H90.9219C95.1297 6.39941 97.0723 8.52101 97.2868 12.1652C97.3134 12.6279 97.3134 12.708 97.3134 12.708H93.5632C93.5632 12.708 93.5632 12.6279 93.5366 12.1921C93.3752 10.4237 92.5929 10.0167 90.92 10.0167H84.7165C82.8556 10.0167 82.0733 10.5332 82.0733 12.8986V19.1271C82.0733 21.4657 82.9088 21.9821 84.7165 21.9821H90.92C92.7277 21.9821 93.5632 21.4657 93.5632 19.1271V18.7423H87.7956L87.8059 15.4522H97.3134V18.8794C97.3134 22.9306 95.3975 25.5994 90.92 25.5994H84.7165H84.7184Z" fill="white"/>
<path d="M60.9922 25.5994V6.39941H76.9425V10.0167H64.6797V14.329H72.4726V17.6737H64.6797V21.9821H76.9425V25.5994H60.9922Z" fill="white"/>
<path d="M46.1262 25.5994L37.5016 6.39941H41.5348L48.3668 22.0337L55.1134 6.39941H59.1485L50.5486 25.5994H46.1281H46.1262Z" fill="white"/>
<path d="M115.388 25.5994H119.422L110.797 6.39941H106.376L97.7766 25.5994H101.812L103.414 21.9821H113.769L115.39 25.5994H115.388ZM104.893 18.6375L108.549 9.96513L112.265 18.6375H104.893Z" fill="white"/>
<rect width="32" height="32" fill="#63D651"/>
<path d="M27.9136 10.7416L19.9548 10.7373L18.0035 11.8381C17.3991 12.2511 16.6994 12.4562 15.9996 12.4547C15.2999 12.4562 14.6002 12.2511 13.9957 11.8381L12.0444 10.7373L4.08566 10.7416L3.55518 11.9307L5.65011 14.2462C6.3214 15.0024 7.28566 15.4353 8.29829 15.4353H13.2334L15.9996 18.7022L18.7658 15.4353H23.701C24.7136 15.4353 25.6778 15.0024 26.3491 14.2462L28.4441 11.9307L27.9136 10.7416Z" fill="#0E161F"/>
<path d="M18.6529 19.0754C17.9462 19.8633 16.9722 20.2559 15.9996 20.2502C15.027 20.2545 14.0529 19.8633 13.3462 19.0754L11.9897 17.5635H8.63959L15.2872 24.9594H16.712L23.3596 17.5635H20.0095L18.6529 19.0754Z" fill="#0E161F"/>
</svg>
