<svg width="20" height="20" viewBox="0 0 20 20" fill="none" xmlns="http://www.w3.org/2000/svg">
<g clip-path="url(#clip0_1815_23)">
<path d="M14.0035 6.89668C14.5006 6.89668 14.9035 6.49374 14.9035 5.99668C14.9035 5.49962 14.5006 5.09668 14.0035 5.09668C13.5065 5.09668 13.1035 5.49962 13.1035 5.99668C13.1035 6.49374 13.5065 6.89668 14.0035 6.89668Z" fill="white"/>
<path d="M10 6.14844C9.23827 6.14844 8.49364 6.37432 7.86029 6.79751C7.22693 7.22071 6.73329 7.82221 6.44179 8.52596C6.15029 9.2297 6.07402 10.0041 6.22263 10.7512C6.37123 11.4983 6.73804 12.1845 7.27666 12.7231C7.81529 13.2618 8.50154 13.6286 9.24863 13.7772C9.99572 13.9258 10.7701 13.8495 11.4739 13.558C12.1776 13.2665 12.7791 12.7729 13.2023 12.1395C13.6255 11.5062 13.8514 10.7615 13.8514 9.99981C13.8514 8.97836 13.4456 7.99875 12.7233 7.27648C12.0011 6.55421 11.0214 6.14844 10 6.14844ZM10 12.4998C9.50554 12.4998 9.02219 12.3532 8.61107 12.0785C8.19995 11.8038 7.87952 11.4133 7.6903 10.9565C7.50108 10.4997 7.45157 9.99704 7.54803 9.51209C7.6445 9.02713 7.8826 8.58168 8.23223 8.23205C8.58186 7.88241 9.02732 7.64431 9.51227 7.54785C9.99722 7.45139 10.4999 7.50089 10.9567 7.69011C11.4135 7.87933 11.804 8.19976 12.0787 8.61089C12.3534 9.02201 12.5 9.50536 12.5 9.99981C12.5 10.6629 12.2366 11.2987 11.7678 11.7676C11.2989 12.2364 10.663 12.4998 10 12.4998Z" fill="white"/>
<path d="M10 3.85137C12.0026 3.85137 12.2398 3.859 13.0306 3.89513C13.5062 3.90079 13.9773 3.98814 14.4233 4.15338C14.7467 4.27818 15.0405 4.4693 15.2856 4.71444C15.5308 4.95958 15.7219 5.25331 15.8467 5.57675C16.0119 6.02276 16.0993 6.49384 16.1049 6.96944C16.141 7.76025 16.1487 7.9975 16.1487 10.0001C16.1487 12.0026 16.1411 12.2399 16.1049 13.0307C16.0993 13.5063 16.0119 13.9774 15.8467 14.4234C15.7219 14.7468 15.5308 15.0405 15.2856 15.2857C15.0405 15.5308 14.7467 15.7219 14.4233 15.8467C13.9773 16.012 13.5062 16.0993 13.0306 16.105C12.2399 16.1411 12.0028 16.1487 10 16.1487C7.99725 16.1487 7.76013 16.1411 6.96938 16.105C6.49378 16.0993 6.02269 16.012 5.57669 15.8467C5.25325 15.7219 4.95951 15.5308 4.71437 15.2857C4.46923 15.0405 4.27812 14.7468 4.15331 14.4234C3.98808 13.9774 3.90072 13.5063 3.89506 13.0307C3.859 12.2399 3.85131 12.0026 3.85131 10.0001C3.85131 7.9975 3.85894 7.76025 3.89506 6.96944C3.90072 6.49384 3.98808 6.02276 4.15331 5.57675C4.27811 5.2533 4.46922 4.95955 4.71436 4.7144C4.9595 4.46925 5.25324 4.27812 5.57669 4.15331C6.02269 3.98808 6.49378 3.90072 6.96938 3.89506C7.76019 3.859 7.99744 3.85137 10 3.85137ZM10 2.5C7.96312 2.5 7.70769 2.50862 6.90775 2.54512C6.28566 2.55761 5.67018 2.67549 5.0875 2.89375C4.58921 3.08645 4.13667 3.38112 3.7589 3.7589C3.38112 4.13667 3.08645 4.58921 2.89375 5.0875C2.67546 5.67028 2.55758 6.28586 2.54512 6.90806C2.50862 7.70769 2.5 7.96312 2.5 10C2.5 12.0369 2.50862 12.2923 2.54512 13.0922C2.55759 13.7144 2.67547 14.33 2.89375 14.9128C3.08645 15.4111 3.38112 15.8636 3.7589 16.2414C4.13667 16.6192 4.58921 16.9139 5.0875 17.1066C5.67028 17.3249 6.28586 17.4427 6.90806 17.4552C7.70769 17.4914 7.96312 17.5 10 17.5C12.0369 17.5 12.2923 17.4914 13.0922 17.4549C13.7144 17.4424 14.33 17.3245 14.9128 17.1063C15.4111 16.9136 15.8636 16.6189 16.2414 16.2411C16.6192 15.8633 16.9139 15.4108 17.1066 14.9125C17.3248 14.3297 17.4427 13.7141 17.4552 13.0919C17.4914 12.2923 17.5 12.0369 17.5 10C17.5 7.96312 17.4914 7.70769 17.4549 6.90775C17.4424 6.28566 17.3245 5.67018 17.1063 5.0875C16.9135 4.58927 16.6188 4.13679 16.2411 3.75907C15.8633 3.38135 15.4108 3.08672 14.9125 2.89406C14.3297 2.67578 13.7141 2.5579 13.0919 2.54544C12.2923 2.50863 12.0369 2.5 10 2.5Z" fill="white"/>
</g>
<defs>
<clipPath id="clip0_1815_23">
<rect width="20" height="20" fill="white"/>
</clipPath>
</defs>
</svg>
