<svg width="120" height="32" viewBox="0 0 120 32" fill="none" xmlns="http://www.w3.org/2000/svg">
<rect width="120" height="32" fill="#888888"/>
<g id="Home">
<path d="M-2428 -616C-2428 -617.104 -2427.1 -618 -2426 -618H7686C7687.1 -618 7688 -617.105 7688 -616V7311C7688 7312.1 7687.1 7313 7686 7313H-2426C-2427.1 7313 -2428 7312.1 -2428 7311V-616Z" fill="#444444"/>
<path d="M-2426 -617H7686V-619H-2426V-617ZM7687 -616V7311H7689V-616H7687ZM7686 7312H-2426V7314H7686V7312ZM-2427 7311V-616H-2429V7311H-2427ZM-2426 7312C-2426.55 7312 -2427 7311.55 -2427 7311H-2429C-2429 7312.66 -2427.66 7314 -2426 7314V7312ZM7687 7311C7687 7311.55 7686.55 7312 7686 7312V7314C7687.66 7314 7689 7312.66 7689 7311H7687ZM7686 -617C7686.55 -617 7687 -616.552 7687 -616H7689C7689 -617.657 7687.66 -619 7686 -619V-617ZM-2426 -619C-2427.66 -619 -2429 -617.657 -2429 -616H-2427C-2427 -616.552 -2426.55 -617 -2426 -617V-619Z" fill="white" fill-opacity="0.1"/>
<g id="home" clip-path="url(#clip0_1_83)">
<rect width="1440" height="4827" transform="translate(-48 -21)" fill="white"/>
<g id="Frame 3778">
<rect width="1440" height="74" transform="translate(-48 -21)" fill="white"/>
<g id="Frame 3802">
<g id="logo-header">
<g id="Group 3241">
<path id="Vector" d="M84.9767 25.6C80.4992 25.6 78.5833 23.0445 78.5833 18.9914V13.0355C78.5833 8.95552 80.4992 6.4 84.9767 6.4H91.1802C95.388 6.4 97.3306 8.5216 97.5451 12.1658C97.5717 12.6285 97.5717 12.7086 97.5717 12.7086H93.8215C93.8215 12.7086 93.8215 12.6285 93.7949 12.1926C93.6335 10.4243 92.8512 10.0173 91.1783 10.0173H84.9748C83.1139 10.0173 82.3316 10.5338 82.3316 12.8992V19.1277C82.3316 21.4662 83.1671 21.9827 84.9748 21.9827H91.1783C92.986 21.9827 93.8215 21.4662 93.8215 19.1277V18.7429H88.0539L88.0642 15.4528H97.5717V18.88C97.5717 22.9312 95.6558 25.6 91.1783 25.6H84.9748H84.9767Z" fill="#131E29"/>
<path id="Vector_2" d="M61.2506 25.6V6.4H77.2009V10.0173H64.9382V14.3296H72.731V17.6742H64.9382V21.9827H77.2009V25.6H61.2506Z" fill="#131E29"/>
<path id="Vector_3" d="M46.3846 25.6L37.76 6.4H41.7932L48.6252 22.0343L55.3718 6.4H59.4069L50.807 25.6H46.3865H46.3846Z" fill="#131E29"/>
<path id="Vector_4" d="M115.647 25.6H119.68L111.055 6.4H106.635L98.0351 25.6H102.07L103.673 21.9827H114.027L115.649 25.6H115.647ZM105.152 18.6381L108.807 9.96571L112.523 18.6381H105.152Z" fill="#131E29"/>
</g>
<g id="Group 3260">
<rect id="Rectangle 84" width="32" height="32" fill="#63D651"/>
<g id="Group 3257">
<g id="Group 3249">
<path id="Vector_5" d="M27.9139 10.7421L19.9552 10.7378L18.0039 11.8386C17.3995 12.2516 16.6997 12.4566 16 12.4552C15.3003 12.4566 14.6005 12.2516 13.9961 11.8386L12.0448 10.7378L4.08603 10.7421L3.55554 11.9312L5.65047 14.2467C6.32176 15.0029 7.28603 15.4358 8.29865 15.4358H13.2338L16 18.7026L18.7662 15.4358H23.7013C24.7139 15.4358 25.6782 15.0029 26.3495 14.2467L28.4444 11.9312L27.9139 10.7421Z" fill="#131E29"/>
<path id="Vector_6" d="M18.6532 19.076C17.9465 19.8639 16.9725 20.2565 15.9999 20.2508C15.0273 20.2551 14.0532 19.8639 13.3465 19.076L11.99 17.5641H8.63989L15.2875 24.96H16.7123L23.3599 17.5641H20.0098L18.6532 19.076Z" fill="#131E29"/>
</g>
</g>
</g>
</g>
</g>
</g>
</g>
</g>
<defs>
<clipPath id="clip0_1_83">
<rect width="1440" height="4827" fill="white" transform="translate(-48 -21)"/>
</clipPath>
</defs>
</svg>
