<svg width="5" height="6" viewBox="0 0 5 6" fill="none" xmlns="http://www.w3.org/2000/svg">
<path d="M2.5 5.13068C2.09896 5.13068 1.73272 5.03291 1.40128 4.83736C1.06984 4.63849 0.804688 4.37334 0.605824 4.0419C0.410275 3.71046 0.3125 3.34422 0.3125 2.94318C0.3125 2.53883 0.410275 2.17259 0.605824 1.84446C0.804688 1.51302 1.06984 1.24953 1.40128 1.05398C1.73272 0.855113 2.09896 0.755682 2.5 0.755682C2.90436 0.755682 3.2706 0.855113 3.59872 1.05398C3.93016 1.24953 4.19366 1.51302 4.3892 1.84446C4.58807 2.17259 4.6875 2.53883 4.6875 2.94318C4.6875 3.34422 4.58807 3.71046 4.3892 4.0419C4.19366 4.37334 3.93016 4.63849 3.59872 4.83736C3.2706 5.03291 2.90436 5.13068 2.5 5.13068Z" fill="white"/>
</svg>
